<svg xmlns="http://www.w3.org/2000/svg" xmlns:xlink="http://www.w3.org/1999/xlink" width="86" height="86" viewBox="0 0 86 86">
  <defs>
    <clipPath id="clip-path">
      <rect id="Rectángulo_37094" data-name="Rectángulo 37094" width="42" height="72.672" fill="#12263f"/>
    </clipPath>
  </defs>
  <g id="Grupo_986090" data-name="Grupo 986090" transform="translate(2075 12106)">
    <circle id="Elipse_4867" data-name="Elipse 4867" cx="43" cy="43" r="43" transform="translate(-2075 -12106)" fill="#4adbd1"/>
    <g id="Grupo_141635" data-name="Grupo 141635" transform="translate(-2054 -12102.712)">
      <g id="Grupo_141634" data-name="Grupo 141634" clip-path="url(#clip-path)">
        <path id="Trazado_183486" data-name="Trazado 183486" d="M66.479,230.357a8.4,8.4,0,1,1,8.4-8.4,8.405,8.405,0,0,1-8.4,8.4m0-14.513a6.117,6.117,0,1,0,6.117,6.117,6.124,6.124,0,0,0-6.117-6.117" transform="translate(-45.479 -167.221)" fill="#12263f"/>
        <path id="Trazado_183487" data-name="Trazado 183487" d="M33.807,219.331a1.14,1.14,0,0,1-1.048-1.585c4-9.417,6.617-15.7,6.862-16.48,0-.023.01-.046.016-.069a2.48,2.48,0,0,0-.176-1.755l-4.314-8.486a2.489,2.489,0,0,0-4.447,2.236l3.68,7.24a1.139,1.139,0,0,1,.03.968l-5.647,13.073a1.139,1.139,0,0,1-1.705.477,10.47,10.47,0,0,0-12.115,0,1.139,1.139,0,0,1-1.705-.477L7.59,201.4a1.139,1.139,0,0,1,.03-.968l3.682-7.244a2.489,2.489,0,0,0-4.447-2.236l-4.317,8.494a2.477,2.477,0,0,0-.174,1.751c.006.023.012.046.016.069.245.779,2.862,7.064,6.862,16.48a1.139,1.139,0,0,1-2.1.891C1.413,205.142.364,202.478.17,201.78l-.007,0a4.754,4.754,0,0,1,.343-3.365l4.317-8.494a4.767,4.767,0,0,1,8.513,4.294l-3.441,6.77L14.8,212.349a12.758,12.758,0,0,1,12.4,0l4.908-11.361-3.44-6.767a4.767,4.767,0,1,1,8.513-4.294l4.313,8.487a4.759,4.759,0,0,1,.345,3.369l-.007,0c-.194.7-1.242,3.36-6.976,16.857a1.14,1.14,0,0,1-1.049.694M2.4,201.469v0m37.2,0v0m-37.2,0h0Zm37.2,0h0Z" transform="translate(0 -146.659)" fill="#12263f"/>
        <path id="Trazado_183488" data-name="Trazado 183488" d="M69.6,158.851H51.919a1.139,1.139,0,0,1-1.139-1.139V157.5a5.331,5.331,0,0,1,2.958-4.7,3.947,3.947,0,0,0,2.138-3.518l0-1.193a1.139,1.139,0,0,1,1.137-1.141h0a1.139,1.139,0,0,1,1.139,1.137l0,1.195a6.218,6.218,0,0,1-3.368,5.543,3.2,3.2,0,0,0-1.569,1.755H68.3a3.206,3.206,0,0,0-1.571-1.754,6.219,6.219,0,0,1-3.37-5.535l0-1.2a1.139,1.139,0,0,1,1.138-1.141h0a1.139,1.139,0,0,1,1.139,1.138l0,1.2a3.948,3.948,0,0,0,2.14,3.514,5.336,5.336,0,0,1,2.962,4.7v.219a1.14,1.14,0,0,1-1.139,1.14" transform="translate(-39.76 -115.055)" fill="#12263f"/>
        <path id="Trazado_183489" data-name="Trazado 183489" d="M53.444,72.511A12.022,12.022,0,0,1,41.436,60.5V50.112a1.139,1.139,0,0,1,1.139-1.139H64.313a1.139,1.139,0,0,1,1.139,1.139V60.5A12.022,12.022,0,0,1,53.444,72.511m-9.73-21.26V60.5a9.73,9.73,0,1,0,19.459,0V51.252Z" transform="translate(-32.444 -38.346)" fill="#12263f"/>
        <path id="Trazado_183490" data-name="Trazado 183490" d="M53.444,72.511A12.022,12.022,0,0,1,41.436,60.5V50.112a1.139,1.139,0,0,1,1.139-1.139H64.313a1.139,1.139,0,0,1,1.139,1.139V60.5A12.022,12.022,0,0,1,53.444,72.511m-9.73-21.26V60.5a9.73,9.73,0,1,0,19.459,0V51.252Z" transform="translate(-32.444 -38.346)" fill="#12263f"/>
        <path id="Trazado_183491" data-name="Trazado 183491" d="M138.808,81.689a1.139,1.139,0,0,1-.285-2.242,10.315,10.315,0,0,0,7.655-8.849h-5.994a1.139,1.139,0,1,1,0-2.279h7.2a1.139,1.139,0,0,1,1.139,1.139,12.594,12.594,0,0,1-9.424,12.193,1.135,1.135,0,0,1-.287.037" transform="translate(-107.794 -53.494)" fill="#12263f"/>
        <path id="Trazado_183492" data-name="Trazado 183492" d="M142.694,89.492a1.139,1.139,0,0,1-.514-2.157,7.114,7.114,0,0,0,2.449-2.036h-1.4a1.139,1.139,0,1,1,0-2.279h3.367a1.14,1.14,0,0,1,1.051,1.579,9.408,9.408,0,0,1-4.437,4.77,1.133,1.133,0,0,1-.512.122" transform="translate(-110.836 -65.005)" fill="#12263f"/>
        <path id="Trazado_183493" data-name="Trazado 183493" d="M15.59,81.689a1.137,1.137,0,0,1-.287-.037A12.594,12.594,0,0,1,5.879,69.459,1.139,1.139,0,0,1,7.018,68.32h7.2a1.139,1.139,0,1,1,0,2.279H8.22a10.314,10.314,0,0,0,7.655,8.849,1.139,1.139,0,0,1-.285,2.242" transform="translate(-4.603 -53.494)" fill="#12263f"/>
        <path id="Trazado_183494" data-name="Trazado 183494" d="M28.559,89.492a1.133,1.133,0,0,1-.512-.122A9.409,9.409,0,0,1,23.61,84.6a1.139,1.139,0,0,1,1.051-1.579h3.368a1.139,1.139,0,1,1,0,2.279h-1.4a7.113,7.113,0,0,0,2.449,2.036,1.139,1.139,0,0,1-.514,2.157" transform="translate(-18.418 -65.005)" fill="#12263f"/>
        <path id="Trazado_183495" data-name="Trazado 183495" d="M78.482,81.3a1.137,1.137,0,0,1-.533-.132L75.555,79.9l-2.4,1.255a1.139,1.139,0,0,1-1.65-1.205l.465-2.669-1.935-1.9a1.139,1.139,0,0,1,.636-1.942l2.682-.383,1.205-2.426A1.139,1.139,0,0,1,75.577,70h0a1.139,1.139,0,0,1,1.02.638l1.193,2.432,2.68.4a1.139,1.139,0,0,1,.626,1.945l-1.945,1.886.451,2.671A1.139,1.139,0,0,1,78.482,81.3M75.558,77.47a1.139,1.139,0,0,1,.533.132l.883.467-.166-.986a1.14,1.14,0,0,1,.33-1.008l.717-.7-.989-.146a1.14,1.14,0,0,1-.856-.625l-.44-.9-.445.9a1.139,1.139,0,0,1-.859.621l-.99.141.714.7a1.14,1.14,0,0,1,.325,1.009l-.172.985.886-.463a1.139,1.139,0,0,1,.528-.13" transform="translate(-54.568 -54.808)" fill="#12263f"/>
        <path id="Trazado_183496" data-name="Trazado 183496" d="M87.455,178.476H83.463a1.139,1.139,0,1,1,0-2.279h3.992a1.139,1.139,0,0,1,0,2.279" transform="translate(-64.459 -137.961)" fill="#12263f"/>
        <path id="Trazado_183497" data-name="Trazado 183497" d="M92.663,6.074a1.139,1.139,0,0,1-1.139-1.139v-3.8a1.139,1.139,0,1,1,2.279,0v3.8a1.139,1.139,0,0,1-1.139,1.139" transform="translate(-71.663)" fill="#12263f"/>
        <path id="Trazado_183498" data-name="Trazado 183498" d="M5.053,43.772a1.133,1.133,0,0,1-.569-.153L1.2,41.721a1.139,1.139,0,0,1,1.139-1.973l3.287,1.9a1.139,1.139,0,0,1-.571,2.126" transform="translate(-0.491 -31.003)" fill="#12263f"/>
        <path id="Trazado_183499" data-name="Trazado 183499" d="M1.766,139.985a1.139,1.139,0,0,1-.571-2.126l3.287-1.9a1.139,1.139,0,1,1,1.139,1.973l-3.287,1.9a1.135,1.135,0,0,1-.569.153" transform="translate(-0.49 -106.337)" fill="#12263f"/>
        <path id="Trazado_183500" data-name="Trazado 183500" d="M171.694,139.986a1.135,1.135,0,0,1-.569-.153l-3.287-1.9a1.139,1.139,0,1,1,1.139-1.973l3.287,1.9a1.139,1.139,0,0,1-.571,2.126" transform="translate(-130.971 -106.338)" fill="#12263f"/>
        <path id="Trazado_183501" data-name="Trazado 183501" d="M168.41,43.774a1.139,1.139,0,0,1-.571-2.126l3.287-1.9a1.139,1.139,0,0,1,1.139,1.973l-3.287,1.9a1.133,1.133,0,0,1-.569.153" transform="translate(-130.971 -31.005)" fill="#12263f"/>
      </g>
    </g>
  </g>
</svg>
