<svg xmlns="http://www.w3.org/2000/svg" xmlns:xlink="http://www.w3.org/1999/xlink" width="820.53" height="355.861" viewBox="0 0 820.53 355.861">
  <defs>
    <clipPath id="clip-path">
      <rect id="Rectángulo_344639" data-name="Rectángulo 344639" width="820.53" height="355.861" fill="none"/>
    </clipPath>
    <clipPath id="clip-path-2">
      <rect id="Rectángulo_344638" data-name="Rectángulo 344638" width="820.529" height="355.861" fill="none"/>
    </clipPath>
    <clipPath id="clip-path-3">
      <rect id="Rectángulo_344632" data-name="Rectángulo 344632" width="248.026" height="248.587" fill="none"/>
    </clipPath>
    <clipPath id="clip-path-4">
      <path id="Trazado_659203" data-name="Trazado 659203" d="M323.1,347.06c0,68.646-55.523,124.294-124.014,124.294S75.073,415.705,75.073,347.06,130.6,222.766,199.087,222.766,323.1,278.414,323.1,347.06" transform="translate(-75.073 -222.766)" fill="none"/>
    </clipPath>
    <radialGradient id="radial-gradient" cx="0.5" cy="0.5" r="0.499" gradientTransform="matrix(1.002, 0, 0, -0.988, 0, 2.427)" gradientUnits="objectBoundingBox">
      <stop offset="0" stop-color="#38393d"/>
      <stop offset="0.794" stop-color="#38393d"/>
      <stop offset="0.803" stop-color="#58595c"/>
      <stop offset="0.816" stop-color="#7f7f82"/>
      <stop offset="0.83" stop-color="#a1a2a4"/>
      <stop offset="0.845" stop-color="#bebfc0"/>
      <stop offset="0.862" stop-color="#d6d6d7"/>
      <stop offset="0.881" stop-color="#e8e8e9"/>
      <stop offset="0.904" stop-color="#f5f5f5"/>
      <stop offset="0.934" stop-color="#fcfcfc"/>
      <stop offset="1" stop-color="#fff"/>
    </radialGradient>
    <clipPath id="clip-path-5">
      <rect id="Rectángulo_344634" data-name="Rectángulo 344634" width="248.027" height="248.587" fill="none"/>
    </clipPath>
    <clipPath id="clip-path-6">
      <path id="Trazado_659205" data-name="Trazado 659205" d="M1463.644,347.06c0,68.646-55.523,124.294-124.013,124.294s-124.014-55.648-124.014-124.294,55.523-124.294,124.014-124.294,124.013,55.648,124.013,124.294" transform="translate(-1215.617 -222.766)" fill="none"/>
    </clipPath>
    <radialGradient id="radial-gradient-2" r="0.499" gradientTransform="matrix(1.002, 0, 0, -0.988, 0.003, 2.427)" xlink:href="#radial-gradient"/>
    <clipPath id="clip-path-8">
      <path id="Trazado_659207" data-name="Trazado 659207" d="M2604.187,347.06c0,68.646-55.522,124.294-124.013,124.294S2356.16,415.705,2356.16,347.06s55.523-124.294,124.014-124.294,124.013,55.648,124.013,124.294" transform="translate(-2356.16 -222.766)" fill="none"/>
    </clipPath>
    <radialGradient id="radial-gradient-3" cx="0.5" cy="0.5" r="0.499" gradientTransform="matrix(1.002, 0, 0, -0.988, 0.005, 2.427)" gradientUnits="objectBoundingBox">
      <stop offset="0"/>
      <stop offset="0.794"/>
      <stop offset="0.804" stop-color="#2b2b2b"/>
      <stop offset="0.815" stop-color="#575757"/>
      <stop offset="0.827" stop-color="#7f7f7f"/>
      <stop offset="0.84" stop-color="#a1a1a1"/>
      <stop offset="0.854" stop-color="#bfbfbf"/>
      <stop offset="0.87" stop-color="#d6d6d6"/>
      <stop offset="0.888" stop-color="#e8e8e8"/>
      <stop offset="0.91" stop-color="#f5f5f5"/>
      <stop offset="0.938" stop-color="#fcfcfc"/>
      <stop offset="1" stop-color="#fff"/>
    </radialGradient>
    <filter id="Trazado_659507" x="110.918" y="187.841" width="66.945" height="51.477" filterUnits="userSpaceOnUse">
      <feOffset dy="3" input="SourceAlpha"/>
      <feGaussianBlur stdDeviation="3" result="blur"/>
      <feFlood flood-opacity="0.161"/>
      <feComposite operator="in" in2="blur"/>
      <feComposite in="SourceGraphic"/>
    </filter>
    <filter id="Trazado_659508" x="355.637" y="187.481" width="116.223" height="51.836" filterUnits="userSpaceOnUse">
      <feOffset dy="3" input="SourceAlpha"/>
      <feGaussianBlur stdDeviation="3" result="blur-2"/>
      <feFlood flood-opacity="0.161"/>
      <feComposite operator="in" in2="blur-2"/>
      <feComposite in="SourceGraphic"/>
    </filter>
    <filter id="Trazado_659509" x="622" y="187.646" width="117.813" height="51.672" filterUnits="userSpaceOnUse">
      <feOffset dy="3" input="SourceAlpha"/>
      <feGaussianBlur stdDeviation="3" result="blur-3"/>
      <feFlood flood-opacity="0.161"/>
      <feComposite operator="in" in2="blur-3"/>
      <feComposite in="SourceGraphic"/>
    </filter>
    <clipPath id="clip-path-9">
      <rect id="Rectángulo_344640" data-name="Rectángulo 344640" width="64.049" height="58.685" fill="#12263f"/>
    </clipPath>
    <clipPath id="clip-path-10">
      <rect id="Rectángulo_344648" data-name="Rectángulo 344648" width="54.59" height="60.673" fill="#12263f"/>
    </clipPath>
    <clipPath id="clip-path-11">
      <rect id="Rectángulo_344649" data-name="Rectángulo 344649" width="70.328" height="70.259" fill="#12263f"/>
    </clipPath>
  </defs>
  <g id="Grupo_986091" data-name="Grupo 986091" transform="translate(1144 10450)">
    <g id="Grupo_985991" data-name="Grupo 985991" transform="translate(-1144 -10450)">
      <g id="Grupo_985990" data-name="Grupo 985990" clip-path="url(#clip-path)">
        <g id="Grupo_985989" data-name="Grupo 985989" transform="translate(0 0)">
          <g id="Grupo_985988" data-name="Grupo 985988" clip-path="url(#clip-path-2)">
            <path id="Trazado_659200" data-name="Trazado 659200" d="M252.413,200.913l-21.06-21.059a7.715,7.715,0,0,0-10.123-.688l-13.147,9.99a7.776,7.776,0,0,1-8.563.6,115.482,115.482,0,0,0-27.487-11.369A7.666,7.666,0,0,1,166.47,172l-2.243-16.445a7.715,7.715,0,0,0-7.644-6.672H126.8a7.715,7.715,0,0,0-7.644,6.672L116.913,172a7.666,7.666,0,0,1-5.562,6.385,115.488,115.488,0,0,0-27.487,11.369,7.777,7.777,0,0,1-8.564-.6l-13.147-9.99a7.715,7.715,0,0,0-10.123.688l-21.06,21.059a7.715,7.715,0,0,0-.687,10.123l9.99,13.147a7.777,7.777,0,0,1,.6,8.564A115.505,115.505,0,0,0,29.5,260.234a7.664,7.664,0,0,1-6.385,5.562L6.672,268.04A7.715,7.715,0,0,0,0,275.683v29.782a7.715,7.715,0,0,0,6.672,7.644l16.445,2.243a7.664,7.664,0,0,1,6.385,5.562A115.515,115.515,0,0,0,40.871,348.4a7.777,7.777,0,0,1-.6,8.564l-9.99,13.147a7.715,7.715,0,0,0,.687,10.123L52.031,401.3a7.715,7.715,0,0,0,10.123.688l13.147-9.99a7.777,7.777,0,0,1,8.564-.6,115.488,115.488,0,0,0,27.487,11.369,7.666,7.666,0,0,1,5.562,6.385l2.243,16.445a7.715,7.715,0,0,0,7.644,6.672h29.782a7.715,7.715,0,0,0,7.644-6.672l2.243-16.445a7.666,7.666,0,0,1,5.562-6.385A115.493,115.493,0,0,0,199.519,391.4a7.776,7.776,0,0,1,8.563.6l13.147,9.99a7.715,7.715,0,0,0,10.123-.688l21.06-21.059a7.714,7.714,0,0,0,.687-10.123l-9.99-13.147a7.777,7.777,0,0,1-.6-8.564,115.494,115.494,0,0,0,11.368-27.487,7.666,7.666,0,0,1,6.385-5.562l16.445-2.243a7.714,7.714,0,0,0,6.672-7.644V275.683a7.714,7.714,0,0,0-6.672-7.644L260.266,265.8a7.666,7.666,0,0,1-6.385-5.562,115.493,115.493,0,0,0-11.368-27.487,7.777,7.777,0,0,1,.6-8.564l9.99-13.147a7.714,7.714,0,0,0-.687-10.123" transform="translate(0 -113.825)" fill="#4adbd1"/>
            <path id="Trazado_659201" data-name="Trazado 659201" d="M1433.306,264.493l-11.421-27.506a7.715,7.715,0,0,0-9.093-4.5l-15.966,4.212a7.777,7.777,0,0,1-8.143-2.718,115.5,115.5,0,0,0-21.062-21,7.665,7.665,0,0,1-2.7-8.025l4.207-16.055a7.715,7.715,0,0,0-4.517-9.086l-27.525-11.373a7.715,7.715,0,0,0-9.613,3.247l-8.353,14.342a7.666,7.666,0,0,1-7.579,3.777,115.49,115.49,0,0,0-29.745.01,7.777,7.777,0,0,1-7.687-3.823l-8.336-14.254a7.715,7.715,0,0,0-9.618-3.23l-27.506,11.421a7.715,7.715,0,0,0-4.5,9.093l4.212,15.966a7.777,7.777,0,0,1-2.718,8.143,115.481,115.481,0,0,0-21,21.062,7.666,7.666,0,0,1-8.025,2.7l-16.055-4.207a7.715,7.715,0,0,0-9.086,4.517L1160.1,264.728a7.715,7.715,0,0,0,3.247,9.613l14.342,8.353a7.665,7.665,0,0,1,3.777,7.579,115.492,115.492,0,0,0,.01,29.745,7.777,7.777,0,0,1-3.823,7.686L1163.4,336.04a7.715,7.715,0,0,0-3.23,9.618l11.421,27.506a7.715,7.715,0,0,0,9.093,4.5l15.966-4.212a7.777,7.777,0,0,1,8.143,2.718,115.5,115.5,0,0,0,21.062,21,7.665,7.665,0,0,1,2.7,8.025l-4.207,16.055a7.715,7.715,0,0,0,4.516,9.086l27.525,11.373a7.715,7.715,0,0,0,9.613-3.247l8.353-14.342a7.665,7.665,0,0,1,7.579-3.777,115.49,115.49,0,0,0,29.745-.01,7.776,7.776,0,0,1,7.686,3.822l8.336,14.254a7.715,7.715,0,0,0,9.618,3.231l27.506-11.421a7.715,7.715,0,0,0,4.5-9.093l-4.212-15.966a7.776,7.776,0,0,1,2.718-8.143,115.5,115.5,0,0,0,21-21.062,7.665,7.665,0,0,1,8.025-2.7l16.055,4.207a7.715,7.715,0,0,0,9.086-4.517l11.373-27.525a7.715,7.715,0,0,0-3.247-9.613l-14.342-8.353a7.666,7.666,0,0,1-3.777-7.579,115.5,115.5,0,0,0-.01-29.745,7.777,7.777,0,0,1,3.823-7.686l14.254-8.336a7.715,7.715,0,0,0,3.23-9.618" transform="translate(-886.472 -128.326)" fill="#f4a338"/>
            <path id="Trazado_659202" data-name="Trazado 659202" d="M2533.5,200.913l-21.06-21.059a7.715,7.715,0,0,0-10.123-.688l-13.147,9.99a7.777,7.777,0,0,1-8.563.6,115.483,115.483,0,0,0-27.487-11.369,7.666,7.666,0,0,1-5.562-6.385l-2.243-16.445a7.715,7.715,0,0,0-7.644-6.672h-29.782a7.715,7.715,0,0,0-7.644,6.672L2398,172a7.666,7.666,0,0,1-5.562,6.385,115.483,115.483,0,0,0-27.487,11.369,7.777,7.777,0,0,1-8.564-.6l-13.147-9.99a7.715,7.715,0,0,0-10.123.688l-21.06,21.059a7.715,7.715,0,0,0-.687,10.123l9.99,13.147a7.777,7.777,0,0,1,.6,8.564,115.486,115.486,0,0,0-11.369,27.487,7.665,7.665,0,0,1-6.385,5.562l-16.445,2.243a7.715,7.715,0,0,0-6.672,7.644v29.782a7.715,7.715,0,0,0,6.672,7.644l16.445,2.243a7.665,7.665,0,0,1,6.385,5.562,115.5,115.5,0,0,0,11.369,27.487,7.777,7.777,0,0,1-.6,8.564l-9.99,13.147a7.715,7.715,0,0,0,.688,10.123l21.06,21.059a7.715,7.715,0,0,0,10.123.688l13.147-9.99a7.777,7.777,0,0,1,8.564-.6,115.487,115.487,0,0,0,27.487,11.369,7.666,7.666,0,0,1,5.562,6.385l2.243,16.445a7.715,7.715,0,0,0,7.644,6.672h29.782a7.715,7.715,0,0,0,7.644-6.672l2.243-16.445a7.666,7.666,0,0,1,5.563-6.385,115.494,115.494,0,0,0,27.487-11.369,7.776,7.776,0,0,1,8.563.6l13.147,9.99a7.715,7.715,0,0,0,10.123-.688l21.06-21.059a7.714,7.714,0,0,0,.688-10.123l-9.99-13.147a7.777,7.777,0,0,1-.6-8.564,115.5,115.5,0,0,0,11.369-27.487,7.665,7.665,0,0,1,6.385-5.562l16.445-2.243a7.715,7.715,0,0,0,6.672-7.644V275.683a7.715,7.715,0,0,0-6.672-7.644l-16.445-2.243a7.665,7.665,0,0,1-6.385-5.562,115.5,115.5,0,0,0-11.369-27.487,7.777,7.777,0,0,1,.6-8.564l9.99-13.147a7.714,7.714,0,0,0-.687-10.123" transform="translate(-1743.941 -113.825)" fill="#5573c6"/>
            <g id="Grupo_985977" data-name="Grupo 985977" transform="translate(17.678 52.457)" style="mix-blend-mode: multiply;isolation: isolate">
              <g id="Grupo_985976" data-name="Grupo 985976">
                <g id="Grupo_985975" data-name="Grupo 985975" clip-path="url(#clip-path-3)">
                  <g id="Grupo_985974" data-name="Grupo 985974" transform="translate(0 -0.001)">
                    <g id="Grupo_985973" data-name="Grupo 985973" clip-path="url(#clip-path-4)">
                      <rect id="Rectángulo_344631" data-name="Rectángulo 344631" width="248.027" height="248.588" transform="translate(0 0)" fill="url(#radial-gradient)"/>
                    </g>
                  </g>
                </g>
              </g>
            </g>
            <path id="Trazado_659204" data-name="Trazado 659204" d="M369.785,415.434A103.234,103.234,0,1,0,266.551,518.668,103.234,103.234,0,0,0,369.785,415.434" transform="translate(-124.859 -238.684)" fill="#4adbd1"/>
            <g id="Grupo_985982" data-name="Grupo 985982" transform="translate(286.252 52.457)" style="mix-blend-mode: multiply;isolation: isolate">
              <g id="Grupo_985981" data-name="Grupo 985981">
                <g id="Grupo_985980" data-name="Grupo 985980" clip-path="url(#clip-path-5)">
                  <g id="Grupo_985979" data-name="Grupo 985979" transform="translate(-0.001 -0.001)">
                    <g id="Grupo_985978" data-name="Grupo 985978" clip-path="url(#clip-path-6)">
                      <rect id="Rectángulo_344633" data-name="Rectángulo 344633" width="248.027" height="248.588" transform="translate(0 0)" fill="url(#radial-gradient-2)"/>
                    </g>
                  </g>
                </g>
              </g>
            </g>
            <path id="Trazado_659206" data-name="Trazado 659206" d="M1510.328,415.434a103.234,103.234,0,1,0-103.234,103.234,103.234,103.234,0,0,0,103.234-103.234" transform="translate(-996.83 -238.684)" fill="#f4a338"/>
            <g id="Grupo_985987" data-name="Grupo 985987" transform="translate(554.824 52.457)" style="mix-blend-mode: multiply;isolation: isolate">
              <g id="Grupo_985986" data-name="Grupo 985986">
                <g id="Grupo_985985" data-name="Grupo 985985" clip-path="url(#clip-path-5)">
                  <g id="Grupo_985984" data-name="Grupo 985984" transform="translate(0 -0.001)">
                    <g id="Grupo_985983" data-name="Grupo 985983" clip-path="url(#clip-path-8)">
                      <rect id="Rectángulo_344635" data-name="Rectángulo 344635" width="248.027" height="248.588" transform="translate(0 0)" fill="url(#radial-gradient-3)"/>
                    </g>
                  </g>
                </g>
              </g>
            </g>
            <path id="Trazado_659208" data-name="Trazado 659208" d="M2650.872,415.434a103.234,103.234,0,1,0-103.234,103.234,103.234,103.234,0,0,0,103.234-103.234" transform="translate(-1868.801 -238.684)" fill="#5573c6"/>
            <path id="Trazado_659209" data-name="Trazado 659209" d="M373.291,529.644c-92.435,65.533-194.7-36.736-129.17-129.17A31.483,31.483,0,0,1,251.59,393c92.435-65.537,194.706,36.733,129.171,129.17a31.479,31.479,0,0,1-7.47,7.47" transform="translate(-170.75 -284.574)" fill="#f9f9f9"/>
            <path id="Trazado_659210" data-name="Trazado 659210" d="M1514.071,529.478c-92.576,65.931-195.17-36.663-129.239-129.239a30.154,30.154,0,0,1,7.067-7.067c92.576-65.93,195.169,36.663,129.239,129.239a30.159,30.159,0,0,1-7.067,7.067" transform="translate(-1042.721 -284.575)" fill="#f9f9f9"/>
            <path id="Trazado_659211" data-name="Trazado 659211" d="M2654.379,529.645c-92.435,65.534-194.7-36.735-129.17-129.17a31.473,31.473,0,0,1,7.469-7.47c92.436-65.534,194.7,36.735,129.17,129.171a31.477,31.477,0,0,1-7.47,7.47" transform="translate(-1914.692 -284.575)" fill="#f9f9f9"/>
            <path id="Trazado_659212" data-name="Trazado 659212" d="M1114.231,384.979a2.549,2.549,0,0,1-3.59-3.59.941.941,0,0,1,.226-.226,2.549,2.549,0,0,1,3.589,3.589.933.933,0,0,1-.226.226" transform="translate(-848.674 -290.973)" fill="#3c3c3b"/>
            <path id="Trazado_659213" data-name="Trazado 659213" d="M1190.514,384.979a2.549,2.549,0,0,1-3.59-3.59.94.94,0,0,1,.226-.226,2.549,2.549,0,0,1,3.59,3.589.934.934,0,0,1-.226.226" transform="translate(-906.995 -290.973)" fill="#3c3c3b"/>
            <path id="Trazado_659214" data-name="Trazado 659214" d="M1266.8,384.979a2.549,2.549,0,0,1-3.59-3.59.934.934,0,0,1,.226-.226,2.549,2.549,0,0,1,3.59,3.589.93.93,0,0,1-.226.226" transform="translate(-965.314 -290.973)" fill="#3c3c3b"/>
            <path id="Trazado_659215" data-name="Trazado 659215" d="M1343.079,384.979a2.549,2.549,0,0,1-3.59-3.59.936.936,0,0,1,.226-.226,2.549,2.549,0,0,1,3.59,3.589.935.935,0,0,1-.226.226" transform="translate(-1023.633 -290.973)" fill="#3c3c3b"/>
            <path id="Trazado_659216" data-name="Trazado 659216" d="M1114.231,1118.872a2.549,2.549,0,0,1-3.59-3.59.94.94,0,0,1,.226-.226,2.549,2.549,0,0,1,3.589,3.589.933.933,0,0,1-.226.226" transform="translate(-848.674 -852.05)" fill="#3c3c3b"/>
            <path id="Trazado_659217" data-name="Trazado 659217" d="M1190.514,1118.872a2.549,2.549,0,0,1-3.59-3.59.939.939,0,0,1,.226-.226,2.549,2.549,0,0,1,3.59,3.589.934.934,0,0,1-.226.226" transform="translate(-906.995 -852.05)" fill="#3c3c3b"/>
            <path id="Trazado_659218" data-name="Trazado 659218" d="M1266.8,1118.872a2.549,2.549,0,0,1-3.59-3.59.933.933,0,0,1,.226-.226,2.549,2.549,0,0,1,3.59,3.589.931.931,0,0,1-.226.226" transform="translate(-965.314 -852.05)" fill="#3c3c3b"/>
            <path id="Trazado_659219" data-name="Trazado 659219" d="M1343.079,1118.872a2.549,2.549,0,0,1-3.59-3.59.935.935,0,0,1,.226-.226,2.549,2.549,0,0,1,3.59,3.589.936.936,0,0,1-.226.226" transform="translate(-1023.633 -852.05)" fill="#3c3c3b"/>
            <path id="Trazado_659220" data-name="Trazado 659220" d="M2119.059,384.979a2.549,2.549,0,0,1-3.589-3.59.934.934,0,0,1,.226-.226,2.549,2.549,0,0,1,3.589,3.589.931.931,0,0,1-.226.226" transform="translate(-1616.888 -290.973)" fill="#3c3c3b"/>
            <path id="Trazado_659221" data-name="Trazado 659221" d="M2195.342,384.979a2.549,2.549,0,0,1-3.59-3.59.938.938,0,0,1,.226-.226,2.549,2.549,0,0,1,3.59,3.589.935.935,0,0,1-.226.226" transform="translate(-1675.207 -290.973)" fill="#3c3c3b"/>
            <path id="Trazado_659222" data-name="Trazado 659222" d="M2271.625,384.979a2.549,2.549,0,0,1-3.59-3.59.934.934,0,0,1,.226-.226,2.549,2.549,0,0,1,3.59,3.589.935.935,0,0,1-.226.226" transform="translate(-1733.527 -290.973)" fill="#3c3c3b"/>
            <path id="Trazado_659223" data-name="Trazado 659223" d="M2347.908,384.979a2.549,2.549,0,0,1-3.589-3.59.933.933,0,0,1,.226-.226,2.549,2.549,0,0,1,3.59,3.589.936.936,0,0,1-.226.226" transform="translate(-1791.848 -290.973)" fill="#3c3c3b"/>
            <path id="Trazado_659224" data-name="Trazado 659224" d="M2119.059,1118.872a2.549,2.549,0,0,1-3.589-3.59.933.933,0,0,1,.226-.226,2.549,2.549,0,0,1,3.589,3.589.932.932,0,0,1-.226.226" transform="translate(-1616.888 -852.05)" fill="#3c3c3b"/>
            <path id="Trazado_659225" data-name="Trazado 659225" d="M2195.342,1118.872a2.549,2.549,0,0,1-3.59-3.59.937.937,0,0,1,.226-.226,2.549,2.549,0,0,1,3.59,3.589.936.936,0,0,1-.226.226" transform="translate(-1675.207 -852.05)" fill="#3c3c3b"/>
            <path id="Trazado_659226" data-name="Trazado 659226" d="M2271.625,1118.872a2.549,2.549,0,0,1-3.59-3.59.933.933,0,0,1,.226-.226,2.549,2.549,0,0,1,3.59,3.589.936.936,0,0,1-.226.226" transform="translate(-1733.527 -852.05)" fill="#3c3c3b"/>
            <path id="Trazado_659227" data-name="Trazado 659227" d="M2347.908,1118.872a2.549,2.549,0,0,1-3.589-3.59.932.932,0,0,1,.226-.226,2.549,2.549,0,0,1,3.59,3.589.937.937,0,0,1-.226.226" transform="translate(-1791.848 -852.05)" fill="#3c3c3b"/>
            <path id="Trazado_659241" data-name="Trazado 659241" d="M337.724,1299.414l-21.234,4.8,6.487,7.227A168.637,168.637,0,0,1,218.166,1347.5a170.83,170.83,0,0,1-103.717-35.2,4.958,4.958,0,1,0-1.187,1.353,172.634,172.634,0,0,0,104.9,35.646,170.421,170.421,0,0,0,106.014-36.507l6.483,7.223Z" transform="translate(-80.461 -993.431)" fill="#12263f"/>
            <path id="Trazado_659242" data-name="Trazado 659242" d="M1479.326,49.88l-7.061-20.593-6.484,7.223A170.417,170.417,0,0,0,1359.768,0a172.636,172.636,0,0,0-104.84,35.6,4.983,4.983,0,1,0,1.167,1.368A170.832,170.832,0,0,1,1359.768,1.8a168.634,168.634,0,0,1,104.811,36.053l-6.487,7.227Z" transform="translate(-953.247 -0.002)" fill="#12263f"/>
            <path id="Trazado_659243" data-name="Trazado 659243" d="M2631.584,1299.414l-21.234,4.8,6.487,7.227a168.636,168.636,0,0,1-104.812,36.052,170.831,170.831,0,0,1-103.8-35.264,4.946,4.946,0,1,0-1.165,1.369,172.631,172.631,0,0,0,104.96,35.69,170.421,170.421,0,0,0,106.014-36.507l6.484,7.223Z" transform="translate(-1834.078 -993.431)" fill="#12263f"/>
          </g>
        </g>
      </g>
    </g>
    <g transform="matrix(1, 0, 0, 1, -1144, -10450)" filter="url(#Trazado_659507)">
      <path id="Trazado_659507-2" data-name="Trazado 659507" d="M30.184,5.523H26.7V15H24.355V5.523H20.918v-1.9h9.266ZM34.957,15a2.507,2.507,0,0,1-.227-.758,2.732,2.732,0,0,1-2.133.914,3,3,0,0,1-2.059-.719,2.312,2.312,0,0,1-.816-1.812,2.389,2.389,0,0,1,1-2.062A4.915,4.915,0,0,1,33.6,9.836h1.039V9.352a1.393,1.393,0,0,0-.3-.937,1.183,1.183,0,0,0-.949-.352,1.345,1.345,0,0,0-.895.273.929.929,0,0,0-.324.75H29.91a2.268,2.268,0,0,1,.453-1.359,3,3,0,0,1,1.281-.98A4.669,4.669,0,0,1,33.5,6.391a3.689,3.689,0,0,1,2.48.785A2.747,2.747,0,0,1,36.9,9.383v3.664a4.041,4.041,0,0,0,.336,1.82V15ZM33.09,13.43a1.945,1.945,0,0,0,.922-.223,1.462,1.462,0,0,0,.625-.6V11.156h-.844q-1.7,0-1.8,1.172l-.008.133a.9.9,0,0,0,.3.7A1.153,1.153,0,0,0,33.09,13.43Zm10.3-4.766a6.134,6.134,0,0,0-.812-.062,1.654,1.654,0,0,0-1.68.867V15H38.637V6.547h2.133l.063,1.008a2.092,2.092,0,0,1,1.883-1.164,2.366,2.366,0,0,1,.7.1Zm3.477-2.117v8.914a3.024,3.024,0,0,1-.742,2.176,2.821,2.821,0,0,1-2.141.777,4.591,4.591,0,0,1-1.117-.133V16.492a4.238,4.238,0,0,0,.711.07q1.023,0,1.023-1.086V6.547ZM44.418,4.359a1.112,1.112,0,0,1,.34-.836,1.47,1.47,0,0,1,1.852,0,1.112,1.112,0,0,1,.34.836A1.108,1.108,0,0,1,46.6,5.2a1.448,1.448,0,0,1-1.836,0A1.108,1.108,0,0,1,44.418,4.359Zm8.1,10.8a4.15,4.15,0,0,1-3.027-1.141,4.054,4.054,0,0,1-1.168-3.039v-.219a5.106,5.106,0,0,1,.492-2.277,3.612,3.612,0,0,1,1.395-1.547,3.914,3.914,0,0,1,2.059-.543A3.508,3.508,0,0,1,55,7.484a4.444,4.444,0,0,1,1,3.1v.922H50.613a2.1,2.1,0,0,0,.66,1.328,2,2,0,0,0,1.395.5,2.437,2.437,0,0,0,2.039-.945l1.109,1.242a3.389,3.389,0,0,1-1.375,1.121A4.511,4.511,0,0,1,52.519,15.156Zm-.258-6.945a1.411,1.411,0,0,0-1.09.455,2.357,2.357,0,0,0-.535,1.3h3.141V9.788a1.681,1.681,0,0,0-.406-1.165A1.456,1.456,0,0,0,52.262,8.211ZM59.98,4.469V6.547h1.445V8.2H59.98v4.219a1.007,1.007,0,0,0,.18.672.9.9,0,0,0,.688.2,3.6,3.6,0,0,0,.664-.055v1.711a4.648,4.648,0,0,1-1.367.2,2.156,2.156,0,0,1-2.422-2.4V8.2H56.488V6.547h1.234V4.469ZM67.582,15a2.507,2.507,0,0,1-.227-.758,2.732,2.732,0,0,1-2.133.914,3,3,0,0,1-2.059-.719,2.312,2.312,0,0,1-.816-1.812,2.389,2.389,0,0,1,1-2.062,4.915,4.915,0,0,1,2.879-.727h1.039V9.352a1.393,1.393,0,0,0-.3-.937,1.183,1.183,0,0,0-.949-.352,1.345,1.345,0,0,0-.895.273.929.929,0,0,0-.324.75H62.535a2.268,2.268,0,0,1,.453-1.359,3,3,0,0,1,1.281-.98,4.669,4.669,0,0,1,1.859-.355,3.689,3.689,0,0,1,2.48.785,2.747,2.747,0,0,1,.918,2.207v3.664a4.041,4.041,0,0,0,.336,1.82V15Zm-1.867-1.57a1.945,1.945,0,0,0,.922-.223,1.462,1.462,0,0,0,.625-.6V11.156h-.844q-1.7,0-1.8,1.172l-.008.133a.9.9,0,0,0,.3.7A1.153,1.153,0,0,0,65.715,13.43ZM27.262,28.383a12.079,12.079,0,0,1,.473-3.391,9.85,9.85,0,0,1,1.41-2.953,6,6,0,0,1,1.945-1.875l.3.953a6.222,6.222,0,0,0-1.871,2.672,11.583,11.583,0,0,0-.8,4.023l-.008.664a11.643,11.643,0,0,0,1.1,5.234,6.252,6.252,0,0,0,1.578,2.078l-.3.883a6.192,6.192,0,0,1-1.984-1.937A10.859,10.859,0,0,1,27.262,28.383Zm13.289,1.125.016.047A5.523,5.523,0,0,1,39.027,32.2a3.968,3.968,0,0,1-2.781.969,3.257,3.257,0,0,1-2.758-1.434,4.215,4.215,0,0,1-.633-3.473l.406-2.031a6.71,6.71,0,0,1,1.684-3.512A4.119,4.119,0,0,1,38,21.461a3.411,3.411,0,0,1,2.656,1.074,3.3,3.3,0,0,1,.766,2.762l-.016.039H39.941a2.911,2.911,0,0,0-.445-1.949,1.933,1.933,0,0,0-1.672-.715,2.44,2.44,0,0,0-1.91,1,5.606,5.606,0,0,0-1.137,2.533l-.414,2.045a3.813,3.813,0,0,0,.254,2.666,1.921,1.921,0,0,0,1.793,1.034,2.29,2.29,0,0,0,1.66-.592,4.567,4.567,0,0,0,1.035-1.853ZM46.387,33q0-.383.016-.629t.055-.5a4.843,4.843,0,0,1-1.2.926,2.793,2.793,0,0,1-1.355.371,2.05,2.05,0,0,1-1.707-.691,2.136,2.136,0,0,1-.309-1.848,2.806,2.806,0,0,1,1.27-1.934,4.816,4.816,0,0,1,2.613-.645h1.445l.164-.836a1.423,1.423,0,0,0-.172-1.2,1.321,1.321,0,0,0-1.094-.41,1.97,1.97,0,0,0-1.187.387,1.474,1.474,0,0,0-.633.9h-1.43l-.016-.047a2.65,2.65,0,0,1,1.172-1.715,4.007,4.007,0,0,1,2.422-.738,2.655,2.655,0,0,1,1.988.746,2.2,2.2,0,0,1,.465,2.09l-.812,4.07a7.878,7.878,0,0,0-.141.883,4.316,4.316,0,0,0,0,.82Zm-2-1.125a2.629,2.629,0,0,0,1.289-.367,3.064,3.064,0,0,0,1.016-.867L47,29.086H45.512a2.217,2.217,0,0,0-1.391.477,1.814,1.814,0,0,0-.734,1.094,1.082,1.082,0,0,0,.117.91A1.067,1.067,0,0,0,44.387,31.875ZM55.1,25.906l-.828-.047a1.66,1.66,0,0,0-.949.293,2.578,2.578,0,0,0-.754.824L51.363,33H49.855l1.688-8.453h1.352L52.8,25.68a3.383,3.383,0,0,1,.988-.953,2.233,2.233,0,0,1,1.184-.336,2.318,2.318,0,0,1,.34.027,1.506,1.506,0,0,1,.27.059Zm.43,2.867a7.091,7.091,0,0,1,1.379-3.281,3.076,3.076,0,0,1,2.441-1.1,2.546,2.546,0,0,1,1.176.27,2.294,2.294,0,0,1,.863.762l.922-4.609h1.508L61.379,33h-1.3l.055-.812a3.227,3.227,0,0,1-1.035.73,3.035,3.035,0,0,1-1.223.246,2.222,2.222,0,0,1-2.051-1.219,4.253,4.253,0,0,1-.332-3.008Zm1.484.164a3.518,3.518,0,0,0,.1,2.16,1.4,1.4,0,0,0,1.406.816,1.7,1.7,0,0,0,1-.309,3.1,3.1,0,0,0,.809-.879l.8-3.992a1.791,1.791,0,0,0-.613-.8,1.693,1.693,0,0,0-1.02-.3,1.847,1.847,0,0,0-1.551.848,5.767,5.767,0,0,0-.895,2.285Zm10.594-.477a12.084,12.084,0,0,1-.457,3.34,9.876,9.876,0,0,1-1.4,2.949,6.127,6.127,0,0,1-1.973,1.922l-.3-.883a6.281,6.281,0,0,0,1.934-2.863,12.387,12.387,0,0,0,.746-4.309v-.25a12.861,12.861,0,0,0-.344-3.051,10.3,10.3,0,0,0-.957-2.527,5.837,5.837,0,0,0-1.379-1.742l.3-.883a6.1,6.1,0,0,1,1.965,1.906,9.9,9.9,0,0,1,1.4,2.945A12.363,12.363,0,0,1,67.605,28.461Z" transform="translate(99 190.65)" fill="#12263f"/>
    </g>
    <g transform="matrix(1, 0, 0, 1, -1144, -10450)" filter="url(#Trazado_659508)">
      <path id="Trazado_659508-2" data-name="Trazado 659508" d="M16.91,11.211A4.025,4.025,0,0,1,15.555,14.1a4.76,4.76,0,0,1-3.223,1.055,4.28,4.28,0,0,1-3.441-1.473A6.038,6.038,0,0,1,7.637,9.641v-.7a6.819,6.819,0,0,1,.578-2.891A4.332,4.332,0,0,1,9.867,4.137a4.629,4.629,0,0,1,2.5-.668,4.637,4.637,0,0,1,3.172,1.055,4.326,4.326,0,0,1,1.391,2.961H14.582a2.376,2.376,0,0,0-.613-1.6,2.271,2.271,0,0,0-1.605-.5,1.991,1.991,0,0,0-1.754.84,4.707,4.707,0,0,0-.6,2.605V9.7a5.038,5.038,0,0,0,.559,2.7,1.954,1.954,0,0,0,1.762.852,2.314,2.314,0,0,0,1.621-.5,2.241,2.241,0,0,0,.613-1.535Zm1.039-.516a5.013,5.013,0,0,1,.484-2.242A3.546,3.546,0,0,1,19.828,6.93a4.069,4.069,0,0,1,2.113-.539,3.849,3.849,0,0,1,2.793,1.047,4.2,4.2,0,0,1,1.207,2.844l.016.578a4.418,4.418,0,0,1-1.086,3.121,3.775,3.775,0,0,1-2.914,1.176,3.793,3.793,0,0,1-2.918-1.172,4.5,4.5,0,0,1-1.09-3.187Zm2.258.16A3.16,3.16,0,0,0,20.66,12.7a1.628,1.628,0,0,0,2.578.008,3.457,3.457,0,0,0,.461-2.015,3.128,3.128,0,0,0-.461-1.831,1.5,1.5,0,0,0-1.3-.649,1.474,1.474,0,0,0-1.281.646A3.516,3.516,0,0,0,20.207,10.856Zm9.219-4.309.07.977a2.951,2.951,0,0,1,2.43-1.133,2.453,2.453,0,0,1,2,.789A3.682,3.682,0,0,1,34.6,9.539V15H32.34V9.581a1.47,1.47,0,0,0-.312-1.045,1.4,1.4,0,0,0-1.039-.325,1.553,1.553,0,0,0-1.43.814V15H27.3V6.547ZM36.855,15V8.2H35.6V6.547h1.258V6.156a3.17,3.17,0,0,1,.98-2.457,3.945,3.945,0,0,1,2.723-.863,9.031,9.031,0,0,1,2.563.461l-.328,1.867a10,10,0,0,0-1.187-.293A5.835,5.835,0,0,0,40.7,4.8q-1.578,0-1.578,1.4v.344h1.664V8.2H39.121V15Zm7.32,0H41.91V6.547h2.266Zm6.617-6.336A6.134,6.134,0,0,0,49.98,8.6a1.654,1.654,0,0,0-1.68.867V15H46.043V6.547h2.133l.063,1.008a2.092,2.092,0,0,1,1.883-1.164,2.366,2.366,0,0,1,.7.1ZM54,6.547l.07.945a2.971,2.971,0,0,1,2.43-1.1A2.255,2.255,0,0,1,58.738,7.68a2.9,2.9,0,0,1,2.539-1.289,2.521,2.521,0,0,1,2.047.8A3.681,3.681,0,0,1,64,9.6V15H61.73V9.6a1.616,1.616,0,0,0-.281-1.053,1.245,1.245,0,0,0-.992-.333,1.409,1.409,0,0,0-1.406.971L59.059,15H56.8V9.6a1.6,1.6,0,0,0-.289-1.065,1.257,1.257,0,0,0-.984-.329,1.463,1.463,0,0,0-1.391.8V15H51.879V6.547ZM70.629,15a2.507,2.507,0,0,1-.227-.758,2.732,2.732,0,0,1-2.133.914,3,3,0,0,1-2.059-.719,2.312,2.312,0,0,1-.816-1.812,2.389,2.389,0,0,1,1-2.062,4.915,4.915,0,0,1,2.879-.727h1.039V9.352a1.393,1.393,0,0,0-.3-.937,1.183,1.183,0,0,0-.949-.352,1.345,1.345,0,0,0-.895.273.929.929,0,0,0-.324.75H65.582a2.268,2.268,0,0,1,.453-1.359,3,3,0,0,1,1.281-.98,4.669,4.669,0,0,1,1.859-.355,3.689,3.689,0,0,1,2.48.785,2.747,2.747,0,0,1,.918,2.207v3.664a4.041,4.041,0,0,0,.336,1.82V15Zm-1.867-1.57a1.945,1.945,0,0,0,.922-.223,1.462,1.462,0,0,0,.625-.6V11.156h-.844q-1.7,0-1.8,1.172l-.008.133a.9.9,0,0,0,.3.7A1.153,1.153,0,0,0,68.762,13.43Zm9.063-.094a1.481,1.481,0,0,0,1.016-.344,1.2,1.2,0,0,0,.406-.914h2.117a2.9,2.9,0,0,1-.469,1.574,3.093,3.093,0,0,1-1.262,1.109,3.949,3.949,0,0,1-1.77.395A3.67,3.67,0,0,1,75,14a4.56,4.56,0,0,1-1.047-3.184v-.148A4.508,4.508,0,0,1,75,7.555a3.627,3.627,0,0,1,2.852-1.164,3.555,3.555,0,0,1,2.543.9,3.2,3.2,0,0,1,.973,2.4H79.246a1.551,1.551,0,0,0-.406-1.072,1.51,1.51,0,0,0-2.223.163,3.333,3.333,0,0,0-.4,1.866v.235a3.375,3.375,0,0,0,.4,1.878A1.377,1.377,0,0,0,77.824,13.336ZM85.035,15H82.769V6.547h2.266Zm-2.4-10.641a1.112,1.112,0,0,1,.34-.836,1.465,1.465,0,0,1,1.848,0,1.105,1.105,0,0,1,.344.836,1.108,1.108,0,0,1-.348.844,1.448,1.448,0,0,1-1.836,0A1.108,1.108,0,0,1,82.637,4.359ZM86.543,10.7a5.013,5.013,0,0,1,.484-2.242A3.546,3.546,0,0,1,88.422,6.93a4.069,4.069,0,0,1,2.113-.539,3.849,3.849,0,0,1,2.793,1.047,4.2,4.2,0,0,1,1.207,2.844l.016.578a4.418,4.418,0,0,1-1.086,3.121,4.209,4.209,0,0,1-5.832,0,4.5,4.5,0,0,1-1.09-3.187Zm2.258.16a3.16,3.16,0,0,0,.453,1.843,1.628,1.628,0,0,0,2.578.008,3.457,3.457,0,0,0,.461-2.015,3.128,3.128,0,0,0-.461-1.831,1.5,1.5,0,0,0-1.3-.649,1.474,1.474,0,0,0-1.281.646A3.516,3.516,0,0,0,88.8,10.856ZM90.98,3h2.461L91.277,5.422H89.441Zm7.039,3.547.07.977a2.951,2.951,0,0,1,2.43-1.133,2.453,2.453,0,0,1,2,.789,3.682,3.682,0,0,1,.672,2.359V15h-2.258V9.581a1.47,1.47,0,0,0-.312-1.045,1.4,1.4,0,0,0-1.039-.325,1.553,1.553,0,0,0-1.43.814V15H95.894V6.547ZM9.008,28.383a12.079,12.079,0,0,1,.473-3.391,9.85,9.85,0,0,1,1.41-2.953,6,6,0,0,1,1.945-1.875l.3.953a6.222,6.222,0,0,0-1.871,2.672,11.583,11.583,0,0,0-.8,4.023l-.008.664a11.643,11.643,0,0,0,1.1,5.234,6.252,6.252,0,0,0,1.578,2.078l-.3.883a6.192,6.192,0,0,1-1.984-1.937A10.859,10.859,0,0,1,9.008,28.383ZM22.3,29.508l.016.047A5.523,5.523,0,0,1,20.773,32.2a3.968,3.968,0,0,1-2.781.969,3.257,3.257,0,0,1-2.758-1.434,4.215,4.215,0,0,1-.633-3.473l.406-2.031a6.71,6.71,0,0,1,1.684-3.512,4.119,4.119,0,0,1,3.051-1.254A3.411,3.411,0,0,1,22.4,22.535a3.3,3.3,0,0,1,.766,2.762l-.016.039H21.687a2.911,2.911,0,0,0-.445-1.949,1.933,1.933,0,0,0-1.672-.715,2.44,2.44,0,0,0-1.91,1,5.606,5.606,0,0,0-1.137,2.533l-.414,2.045a3.813,3.813,0,0,0,.254,2.666,1.921,1.921,0,0,0,1.793,1.034,2.29,2.29,0,0,0,1.66-.592,4.567,4.567,0,0,0,1.035-1.853Zm1.516-.812a5.71,5.71,0,0,1,1.434-3.129,3.674,3.674,0,0,1,2.77-1.176,2.621,2.621,0,0,1,2.363,1.223,4.292,4.292,0,0,1,.488,3.082l-.023.172A5.718,5.718,0,0,1,29.4,32a3.686,3.686,0,0,1-2.77,1.168,2.623,2.623,0,0,1-2.363-1.219,4.254,4.254,0,0,1-.48-3.078Zm1.484.168a4.086,4.086,0,0,0,.137,2.243,1.369,1.369,0,0,0,1.387.847,1.987,1.987,0,0,0,1.625-.886,4.85,4.85,0,0,0,.883-2.2l.023-.172A4.075,4.075,0,0,0,29.2,26.46a1.363,1.363,0,0,0-1.375-.858,1.981,1.981,0,0,0-1.629.89,4.9,4.9,0,0,0-.879,2.2Zm9.492-3.152a3.69,3.69,0,0,1,1.168-.98,2.991,2.991,0,0,1,1.4-.34,2.03,2.03,0,0,1,1.773.813,3.162,3.162,0,0,1,.25,2.461L38.312,33H36.8l1.063-5.3a2.308,2.308,0,0,0-.062-1.621,1.313,1.313,0,0,0-1.156-.434,2.053,2.053,0,0,0-1.086.332,3.347,3.347,0,0,0-.945.887L33.391,33H31.883l1.687-8.453h1.352ZM40.828,33l1.461-7.312H41.062l.227-1.141h1.227l.188-.914a3.329,3.329,0,0,1,3.563-2.984,3.7,3.7,0,0,1,.934.125,9.036,9.036,0,0,1,1.051.352l-.516,1.25a4.178,4.178,0,0,0-.75-.281,3.225,3.225,0,0,0-.867-.117,1.873,1.873,0,0,0-1.273.414,2.1,2.1,0,0,0-.633,1.242l-.187.914h1.523l-.227,1.141H43.8L42.336,33ZM46.6,33H45.086l1.688-8.453h1.516Zm7.484-7.094-.828-.047a1.66,1.66,0,0,0-.949.293,2.578,2.578,0,0,0-.754.824L50.351,33H48.844l1.688-8.453h1.352l-.094,1.133a3.383,3.383,0,0,1,.988-.953,2.233,2.233,0,0,1,1.184-.336,2.318,2.318,0,0,1,.34.027,1.506,1.506,0,0,1,.27.059Zm3-.352a3.414,3.414,0,0,1,1.141-.863,3.356,3.356,0,0,1,1.43-.3,1.884,1.884,0,0,1,1.2.383,1.865,1.865,0,0,1,.645,1.141,3.759,3.759,0,0,1,1.188-1.121,2.946,2.946,0,0,1,1.516-.4,1.833,1.833,0,0,1,1.672.9,3.724,3.724,0,0,1,.211,2.652L65.078,33H63.562l1.016-5.07a2.963,2.963,0,0,0-.016-1.816,1.13,1.13,0,0,0-1.07-.473,1.707,1.707,0,0,0-1.211.566,3.322,3.322,0,0,0-.828,1.387.06.06,0,0,0-.008.023v.016L60.375,33H58.859l1.016-5.07a2.857,2.857,0,0,0-.031-1.781,1.1,1.1,0,0,0-1.062-.508,1.925,1.925,0,0,0-1.062.3,2.649,2.649,0,0,0-.8.832L55.664,33H54.156l1.688-8.453h1.344ZM72.016,33q0-.383.016-.629t.055-.5a4.843,4.843,0,0,1-1.2.926,2.793,2.793,0,0,1-1.355.371,2.05,2.05,0,0,1-1.707-.691,2.136,2.136,0,0,1-.309-1.848,2.806,2.806,0,0,1,1.27-1.934,4.816,4.816,0,0,1,2.613-.645h1.445l.164-.836a1.423,1.423,0,0,0-.172-1.2,1.321,1.321,0,0,0-1.094-.41,1.97,1.97,0,0,0-1.187.387,1.474,1.474,0,0,0-.633.9h-1.43l-.016-.047a2.65,2.65,0,0,1,1.172-1.715,4.007,4.007,0,0,1,2.422-.738,2.655,2.655,0,0,1,1.988.746,2.2,2.2,0,0,1,.465,2.09l-.812,4.07a7.877,7.877,0,0,0-.141.883,4.317,4.317,0,0,0,0,.82Zm-2-1.125a2.629,2.629,0,0,0,1.289-.367,3.064,3.064,0,0,0,1.016-.867l.313-1.555H71.141a2.217,2.217,0,0,0-1.391.477,1.814,1.814,0,0,0-.734,1.094,1.082,1.082,0,0,0,.117.91A1.067,1.067,0,0,0,70.016,31.875Zm9.57-9.367-.414,2.039h1.461l-.227,1.141H78.945L77.922,30.82a1.119,1.119,0,0,0,.039.855.657.657,0,0,0,.555.223,3.236,3.236,0,0,0,.434-.035,3.588,3.588,0,0,0,.4-.074l-.008,1.055a2.072,2.072,0,0,1-.645.23,3.914,3.914,0,0,1-.824.09,1.493,1.493,0,0,1-1.262-.578,2.162,2.162,0,0,1-.2-1.766l1.023-5.133H76.2l.227-1.141h1.234l.414-2.039ZM82.453,33H80.945l1.688-8.453h1.508Zm2.125-10.617H83.07l.313-1.57h1.508ZM85.2,28.7a5.71,5.71,0,0,1,1.434-3.129,3.674,3.674,0,0,1,2.77-1.176,2.621,2.621,0,0,1,2.363,1.223A4.292,4.292,0,0,1,92.25,28.7l-.023.172A5.718,5.718,0,0,1,90.785,32a3.686,3.686,0,0,1-2.77,1.168,2.623,2.623,0,0,1-2.363-1.219,4.254,4.254,0,0,1-.48-3.078Zm1.484.168a4.086,4.086,0,0,0,.137,2.243,1.369,1.369,0,0,0,1.387.847,1.987,1.987,0,0,0,1.625-.886,4.85,4.85,0,0,0,.883-2.2l.023-.172a4.075,4.075,0,0,0-.148-2.232,1.363,1.363,0,0,0-1.375-.858,1.981,1.981,0,0,0-1.629.89,4.9,4.9,0,0,0-.879,2.2Zm9.492-3.152a3.69,3.69,0,0,1,1.168-.98,2.991,2.991,0,0,1,1.4-.34,2.03,2.03,0,0,1,1.773.813,3.162,3.162,0,0,1,.25,2.461L99.7,33H98.187l1.063-5.3a2.308,2.308,0,0,0-.062-1.621,1.313,1.313,0,0,0-1.156-.434,2.053,2.053,0,0,0-1.086.332,3.347,3.347,0,0,0-.945.887L94.773,33H93.266l1.688-8.453H96.3Zm9.688,2.75a12.084,12.084,0,0,1-.457,3.34A9.876,9.876,0,0,1,104,34.75a6.127,6.127,0,0,1-1.973,1.922l-.3-.883a6.281,6.281,0,0,0,1.934-2.863,12.387,12.387,0,0,0,.746-4.309v-.25a12.861,12.861,0,0,0-.344-3.051,10.3,10.3,0,0,0-.957-2.527,5.838,5.838,0,0,0-1.379-1.742l.3-.883A6.1,6.1,0,0,1,104,22.07a9.9,9.9,0,0,1,1.4,2.945A12.363,12.363,0,0,1,105.859,28.461Z" transform="translate(357 190.65)" fill="#12263f"/>
    </g>
    <g transform="matrix(1, 0, 0, 1, -1144, -10450)" filter="url(#Trazado_659509)">
      <path id="Trazado_659509-2" data-name="Trazado 659509" d="M16.273,11.211A4.025,4.025,0,0,1,14.918,14.1,4.76,4.76,0,0,1,11.7,15.156a4.28,4.28,0,0,1-3.441-1.473A6.038,6.038,0,0,1,7,9.641v-.7a6.819,6.819,0,0,1,.578-2.891A4.332,4.332,0,0,1,9.23,4.137a4.629,4.629,0,0,1,2.5-.668A4.637,4.637,0,0,1,14.9,4.523a4.326,4.326,0,0,1,1.391,2.961H13.945a2.376,2.376,0,0,0-.613-1.6,2.271,2.271,0,0,0-1.605-.5,1.991,1.991,0,0,0-1.754.84,4.707,4.707,0,0,0-.6,2.605V9.7a5.038,5.038,0,0,0,.559,2.7,1.954,1.954,0,0,0,1.762.852,2.314,2.314,0,0,0,1.621-.5,2.241,2.241,0,0,0,.613-1.535Zm1.039-.516A5.013,5.013,0,0,1,17.8,8.453,3.546,3.546,0,0,1,19.191,6.93,4.069,4.069,0,0,1,21.3,6.391,3.849,3.849,0,0,1,24.1,7.438,4.2,4.2,0,0,1,25.3,10.281l.016.578a4.418,4.418,0,0,1-1.086,3.121,3.775,3.775,0,0,1-2.914,1.176A3.793,3.793,0,0,1,18.4,13.984a4.5,4.5,0,0,1-1.09-3.187Zm2.258.16a3.16,3.16,0,0,0,.453,1.843,1.628,1.628,0,0,0,2.578.008,3.457,3.457,0,0,0,.461-2.015A3.128,3.128,0,0,0,22.6,8.86a1.5,1.5,0,0,0-1.3-.649,1.474,1.474,0,0,0-1.281.646A3.516,3.516,0,0,0,19.57,10.856Zm9.219-4.309.07.977a2.951,2.951,0,0,1,2.43-1.133,2.453,2.453,0,0,1,2,.789,3.682,3.682,0,0,1,.672,2.359V15H31.7V9.581a1.47,1.47,0,0,0-.312-1.045,1.4,1.4,0,0,0-1.039-.325,1.553,1.553,0,0,0-1.43.814V15H26.664V6.547Zm10.047,5.7,1.57-5.7h2.359L39.914,15H37.758L34.906,6.547h2.359Zm8.711,2.914a4.15,4.15,0,0,1-3.027-1.141,4.054,4.054,0,0,1-1.168-3.039v-.219a5.106,5.106,0,0,1,.492-2.277,3.612,3.612,0,0,1,1.395-1.547A3.914,3.914,0,0,1,47.3,6.391a3.508,3.508,0,0,1,2.73,1.094,4.444,4.444,0,0,1,1,3.1v.922H45.641a2.1,2.1,0,0,0,.66,1.328,2,2,0,0,0,1.395.5,2.437,2.437,0,0,0,2.039-.945l1.109,1.242a3.389,3.389,0,0,1-1.375,1.121A4.511,4.511,0,0,1,47.547,15.156Zm-.258-6.945a1.411,1.411,0,0,0-1.09.455,2.357,2.357,0,0,0-.535,1.3H48.8V9.788A1.681,1.681,0,0,0,48.4,8.623,1.456,1.456,0,0,0,47.289,8.211Zm9.766.453a6.134,6.134,0,0,0-.812-.062,1.654,1.654,0,0,0-1.68.867V15H52.3V6.547h2.133L54.5,7.555a2.092,2.092,0,0,1,1.883-1.164,2.366,2.366,0,0,1,.7.1Zm5.664,4a.727.727,0,0,0-.41-.652,4.659,4.659,0,0,0-1.316-.426q-3.016-.633-3.016-2.562a2.323,2.323,0,0,1,.934-1.879,3.766,3.766,0,0,1,2.441-.754,4.053,4.053,0,0,1,2.574.758,2.388,2.388,0,0,1,.965,1.969H62.633a1.092,1.092,0,0,0-.312-.8A1.322,1.322,0,0,0,61.344,8a1.351,1.351,0,0,0-.883.258.814.814,0,0,0-.312.656.7.7,0,0,0,.355.605,3.657,3.657,0,0,0,1.2.4,9.8,9.8,0,0,1,1.422.379,2.336,2.336,0,0,1,1.789,2.273,2.2,2.2,0,0,1-.992,1.871,4.28,4.28,0,0,1-2.562.715,4.47,4.47,0,0,1-1.887-.379,3.166,3.166,0,0,1-1.293-1.039,2.414,2.414,0,0,1-.469-1.426h2.141a1.179,1.179,0,0,0,.445.922,1.766,1.766,0,0,0,1.109.32,1.635,1.635,0,0,0,.98-.246A.766.766,0,0,0,62.719,12.664ZM71.266,15a2.507,2.507,0,0,1-.227-.758,2.732,2.732,0,0,1-2.133.914,3,3,0,0,1-2.059-.719,2.312,2.312,0,0,1-.816-1.812,2.389,2.389,0,0,1,1-2.062,4.915,4.915,0,0,1,2.879-.727h1.039V9.352a1.393,1.393,0,0,0-.3-.937,1.183,1.183,0,0,0-.949-.352,1.345,1.345,0,0,0-.895.273.929.929,0,0,0-.324.75H66.219a2.268,2.268,0,0,1,.453-1.359,3,3,0,0,1,1.281-.98,4.669,4.669,0,0,1,1.859-.355,3.689,3.689,0,0,1,2.48.785,2.747,2.747,0,0,1,.918,2.207v3.664a4.041,4.041,0,0,0,.336,1.82V15ZM69.4,13.43a1.945,1.945,0,0,0,.922-.223,1.462,1.462,0,0,0,.625-.6V11.156H70.1q-1.7,0-1.8,1.172l-.008.133a.9.9,0,0,0,.3.7A1.153,1.153,0,0,0,69.4,13.43Zm9.063-.094a1.481,1.481,0,0,0,1.016-.344,1.2,1.2,0,0,0,.406-.914H82a2.9,2.9,0,0,1-.469,1.574,3.093,3.093,0,0,1-1.262,1.109,3.949,3.949,0,0,1-1.77.395A3.67,3.67,0,0,1,75.641,14a4.56,4.56,0,0,1-1.047-3.184v-.148a4.508,4.508,0,0,1,1.039-3.117,3.627,3.627,0,0,1,2.852-1.164,3.555,3.555,0,0,1,2.543.9A3.2,3.2,0,0,1,82,9.7H79.883a1.551,1.551,0,0,0-.406-1.072,1.51,1.51,0,0,0-2.223.163,3.333,3.333,0,0,0-.4,1.866v.235a3.375,3.375,0,0,0,.4,1.878A1.377,1.377,0,0,0,78.461,13.336ZM85.672,15H83.406V6.547h2.266Zm-2.4-10.641a1.112,1.112,0,0,1,.34-.836,1.465,1.465,0,0,1,1.848,0,1.105,1.105,0,0,1,.344.836,1.108,1.108,0,0,1-.348.844,1.448,1.448,0,0,1-1.836,0A1.108,1.108,0,0,1,83.273,4.359ZM87.18,10.7a5.013,5.013,0,0,1,.484-2.242A3.546,3.546,0,0,1,89.059,6.93a4.069,4.069,0,0,1,2.113-.539,3.849,3.849,0,0,1,2.793,1.047,4.2,4.2,0,0,1,1.207,2.844l.016.578A4.418,4.418,0,0,1,94.1,13.98a4.209,4.209,0,0,1-5.832,0A4.5,4.5,0,0,1,87.18,10.8Zm2.258.16a3.16,3.16,0,0,0,.453,1.843,1.628,1.628,0,0,0,2.578.008,3.457,3.457,0,0,0,.461-2.015,3.128,3.128,0,0,0-.461-1.831,1.5,1.5,0,0,0-1.3-.649,1.474,1.474,0,0,0-1.281.646A3.516,3.516,0,0,0,89.437,10.856ZM91.617,3h2.461L91.914,5.422H90.078Zm7.039,3.547.07.977a2.951,2.951,0,0,1,2.43-1.133,2.453,2.453,0,0,1,2,.789,3.682,3.682,0,0,1,.672,2.359V15H101.57V9.581a1.47,1.47,0,0,0-.312-1.045,1.4,1.4,0,0,0-1.039-.325,1.553,1.553,0,0,0-1.43.814V15H96.531V6.547ZM8.055,28.383a12.079,12.079,0,0,1,.473-3.391,9.85,9.85,0,0,1,1.41-2.953,6,6,0,0,1,1.945-1.875l.3.953a6.222,6.222,0,0,0-1.871,2.672,11.583,11.583,0,0,0-.8,4.023l-.008.664a11.643,11.643,0,0,0,1.1,5.234,6.252,6.252,0,0,0,1.578,2.078l-.3.883A6.192,6.192,0,0,1,9.9,34.734,10.859,10.859,0,0,1,8.055,28.383Zm13.289,1.125.016.047A5.523,5.523,0,0,1,19.82,32.2a3.968,3.968,0,0,1-2.781.969,3.257,3.257,0,0,1-2.758-1.434,4.215,4.215,0,0,1-.633-3.473l.406-2.031a6.71,6.71,0,0,1,1.684-3.512,4.119,4.119,0,0,1,3.051-1.254,3.411,3.411,0,0,1,2.656,1.074,3.3,3.3,0,0,1,.766,2.762l-.016.039H20.734a2.911,2.911,0,0,0-.445-1.949,1.933,1.933,0,0,0-1.672-.715,2.44,2.44,0,0,0-1.91,1,5.606,5.606,0,0,0-1.137,2.533l-.414,2.045a3.813,3.813,0,0,0,.254,2.666A1.921,1.921,0,0,0,17.2,31.953a2.29,2.29,0,0,0,1.66-.592A4.567,4.567,0,0,0,19.9,29.508Zm1.516-.812a5.71,5.71,0,0,1,1.434-3.129,3.674,3.674,0,0,1,2.77-1.176,2.621,2.621,0,0,1,2.363,1.223,4.292,4.292,0,0,1,.488,3.082l-.023.172A5.718,5.718,0,0,1,28.449,32a3.686,3.686,0,0,1-2.77,1.168,2.623,2.623,0,0,1-2.363-1.219,4.254,4.254,0,0,1-.48-3.078Zm1.484.168a4.086,4.086,0,0,0,.137,2.243,1.369,1.369,0,0,0,1.387.847,1.987,1.987,0,0,0,1.625-.886,4.85,4.85,0,0,0,.883-2.2l.023-.172a4.075,4.075,0,0,0-.148-2.232,1.363,1.363,0,0,0-1.375-.858,1.981,1.981,0,0,0-1.629.89,4.9,4.9,0,0,0-.879,2.2Zm9.492-3.152A3.69,3.69,0,0,1,35,24.73a2.991,2.991,0,0,1,1.4-.34,2.03,2.03,0,0,1,1.773.813,3.162,3.162,0,0,1,.25,2.461L37.359,33H35.851l1.063-5.3a2.308,2.308,0,0,0-.062-1.621,1.313,1.313,0,0,0-1.156-.434,2.053,2.053,0,0,0-1.086.332,3.347,3.347,0,0,0-.945.887L32.437,33H30.93l1.687-8.453h1.352Zm8.852,4.8.023.5.047.008.2-.508,2.719-5.961h1.539L42.976,33H41.844l-1.57-8.453H41.82Zm7.7,2.656a2.739,2.739,0,0,1-2.41-1.184,4.064,4.064,0,0,1-.52-3.043l.055-.344a5.286,5.286,0,0,1,1.48-3.039,3.6,3.6,0,0,1,2.559-1.164,2.448,2.448,0,0,1,2.227,1.041,3.859,3.859,0,0,1,.406,2.747l-.156.963H48.93a3.377,3.377,0,0,0,.238,2.051,1.461,1.461,0,0,0,1.4.761,3.656,3.656,0,0,0,2.336-.831l.43,1a3.866,3.866,0,0,1-1.219.743A4.645,4.645,0,0,1,50.383,33.164Zm.977-7.562a1.757,1.757,0,0,0-1.27.656,3.809,3.809,0,0,0-.879,1.625l.023.047h3.477l.031-.2a2.365,2.365,0,0,0-.18-1.535A1.254,1.254,0,0,0,51.359,25.6Zm8.844.3-.828-.047a1.66,1.66,0,0,0-.949.293,2.578,2.578,0,0,0-.754.824L56.469,33H54.961l1.688-8.453H58l-.094,1.133a3.383,3.383,0,0,1,.988-.953,2.233,2.233,0,0,1,1.184-.336,2.318,2.318,0,0,1,.34.027,1.506,1.506,0,0,1,.27.059ZM65.3,30.754a.944.944,0,0,0-.211-.841,2.669,2.669,0,0,0-1.234-.561,4.706,4.706,0,0,1-2.027-.914,1.606,1.606,0,0,1-.48-1.562,2.72,2.72,0,0,1,1.1-1.777,3.621,3.621,0,0,1,2.258-.707,2.671,2.671,0,0,1,2.047.766,2,2,0,0,1,.516,1.836l-.023.047H65.8A1.2,1.2,0,0,0,64.516,25.6a1.723,1.723,0,0,0-1.141.364,1.386,1.386,0,0,0-.516.866.878.878,0,0,0,.184.8,2.816,2.816,0,0,0,1.223.509,4.639,4.639,0,0,1,2.078.932,1.668,1.668,0,0,1,.477,1.58,2.689,2.689,0,0,1-1.141,1.837,3.953,3.953,0,0,1-2.344.675,2.872,2.872,0,0,1-2.219-.828,2.064,2.064,0,0,1-.547-1.906l.016-.047h1.445a1.25,1.25,0,0,0,.352,1.193,1.723,1.723,0,0,0,1.141.377,2.07,2.07,0,0,0,1.2-.335A1.271,1.271,0,0,0,65.3,30.754ZM72.969,33q0-.383.016-.629t.055-.5a4.843,4.843,0,0,1-1.2.926,2.793,2.793,0,0,1-1.355.371,2.05,2.05,0,0,1-1.707-.691,2.136,2.136,0,0,1-.309-1.848,2.806,2.806,0,0,1,1.27-1.934,4.816,4.816,0,0,1,2.613-.645H73.8l.164-.836a1.423,1.423,0,0,0-.172-1.2A1.321,1.321,0,0,0,72.7,25.6a1.97,1.97,0,0,0-1.187.387,1.474,1.474,0,0,0-.633.9h-1.43l-.016-.047A2.65,2.65,0,0,1,70.6,25.129a4.007,4.007,0,0,1,2.422-.738,2.655,2.655,0,0,1,1.988.746,2.2,2.2,0,0,1,.465,2.09l-.812,4.07a7.877,7.877,0,0,0-.141.883,4.317,4.317,0,0,0,0,.82Zm-2-1.125a2.629,2.629,0,0,0,1.289-.367,3.064,3.064,0,0,0,1.016-.867l.313-1.555H72.094a2.217,2.217,0,0,0-1.391.477,1.814,1.814,0,0,0-.734,1.094,1.082,1.082,0,0,0,.117.91A1.067,1.067,0,0,0,70.969,31.875Zm9.57-9.367-.414,2.039h1.461l-.227,1.141H79.9L78.875,30.82a1.119,1.119,0,0,0,.039.855.657.657,0,0,0,.555.223,3.236,3.236,0,0,0,.434-.035,3.588,3.588,0,0,0,.4-.074L80.3,32.844a2.072,2.072,0,0,1-.645.23,3.914,3.914,0,0,1-.824.09,1.493,1.493,0,0,1-1.262-.578,2.162,2.162,0,0,1-.2-1.766l1.023-5.133H77.156l.227-1.141h1.234l.414-2.039ZM83.406,33H81.9l1.688-8.453h1.508Zm2.125-10.617H84.023l.313-1.57h1.508Zm.617,6.313a5.71,5.71,0,0,1,1.434-3.129,3.674,3.674,0,0,1,2.77-1.176,2.621,2.621,0,0,1,2.363,1.223A4.292,4.292,0,0,1,93.2,28.7l-.023.172A5.718,5.718,0,0,1,91.738,32a3.686,3.686,0,0,1-2.77,1.168,2.623,2.623,0,0,1-2.363-1.219,4.254,4.254,0,0,1-.48-3.078Zm1.484.168a4.086,4.086,0,0,0,.137,2.243,1.369,1.369,0,0,0,1.387.847,1.987,1.987,0,0,0,1.625-.886,4.85,4.85,0,0,0,.883-2.2l.023-.172a4.075,4.075,0,0,0-.148-2.232,1.363,1.363,0,0,0-1.375-.858,1.981,1.981,0,0,0-1.629.89,4.9,4.9,0,0,0-.879,2.2Zm9.492-3.152a3.69,3.69,0,0,1,1.168-.98,2.991,2.991,0,0,1,1.4-.34,2.03,2.03,0,0,1,1.773.813,3.162,3.162,0,0,1,.25,2.461L100.648,33H99.141l1.063-5.3a2.308,2.308,0,0,0-.062-1.621,1.313,1.313,0,0,0-1.156-.434,2.053,2.053,0,0,0-1.086.332,3.347,3.347,0,0,0-.945.887L95.726,33H94.219l1.688-8.453h1.352Zm9.688,2.75a12.084,12.084,0,0,1-.457,3.34,9.876,9.876,0,0,1-1.4,2.949,6.127,6.127,0,0,1-1.973,1.922l-.3-.883a6.281,6.281,0,0,0,1.934-2.863,12.387,12.387,0,0,0,.746-4.309v-.25a12.861,12.861,0,0,0-.344-3.051,10.3,10.3,0,0,0-.957-2.527,5.838,5.838,0,0,0-1.379-1.742l.3-.883a6.1,6.1,0,0,1,1.965,1.906,9.9,9.9,0,0,1,1.4,2.945A12.363,12.363,0,0,1,106.812,28.461Z" transform="translate(624 190.65)" fill="#12263f"/>
    </g>
    <g id="Grupo_985993" data-name="Grupo 985993" transform="translate(-1032.5 -10330.755)">
      <g id="Grupo_985992" data-name="Grupo 985992" clip-path="url(#clip-path-9)">
        <path id="Trazado_659244" data-name="Trazado 659244" d="M51.975,25.638h.893q3.78,0,7.561,0a3.377,3.377,0,0,1,3.62,3.63q0,12.893,0,25.787a3.383,3.383,0,0,1-3.622,3.629H19.968a3.368,3.368,0,0,1-3.564-3.55c0-1.47-.02-2.941.01-4.41a1.421,1.421,0,0,0-.467-1.136Q8.532,42.207,1.142,34.8a3.377,3.377,0,0,1,0-5.065Q15.462,15.415,29.781,1.1a3.456,3.456,0,0,1,5.085.034q9.1,9.1,18.2,18.2a3.4,3.4,0,0,1,.031,5.2c-.337.339-.679.673-1.122,1.113M35.514,27.9q-7.786,0-15.572,0a1.119,1.119,0,0,0-1.281,1.259q-.006,12.893,0,25.786c0,1.116.367,1.482,1.482,1.482H60.283c1.153,0,1.507-.352,1.507-1.5q0-12.8,0-25.608c0-1.061-.365-1.422-1.439-1.422M9.708,40.077a1.182,1.182,0,0,0,.109-.086q3.2-3.2,6.387-6.4a.869.869,0,0,0,.191-.556c.016-1.26.006-2.52.009-3.78A3.371,3.371,0,0,1,20,25.639c1.215-.006,2.43-.016,3.645.008a1.136,1.136,0,0,0,.9-.372Q32.173,17.631,39.816,10c.114-.114.222-.233.272-.286l-4.072-4.1L5.622,36l4.086,4.078m17.8-14.46c.076.007.148.02.22.02q10.392,0,20.785-.01a.8.8,0,0,0,.494-.226c.817-.794,1.617-1.605,2.421-2.413s.791-1.3,0-2.089q-3.453-3.45-6.9-6.9c-.909-.911-1.808-1.83-2.685-2.719L27.511,25.617M34.379,3.773c-.381-.358-.778-.722-1.165-1.1a1.143,1.143,0,0,0-1.806-.008c-.587.579-1.165,1.167-1.749,1.75L7.009,27.067Q4.846,29.23,2.684,31.393a1.092,1.092,0,0,0-.161,1.57c.428.476.911.9,1.341,1.323L34.379,3.773m-18,32.977-4.963,4.937,4.963,4.976Z" transform="translate(0 0)" fill="#12263f"/>
        <path id="Trazado_659245" data-name="Trazado 659245" d="M241.758,411.09h-4.95c-.958,0-1.385-.412-1.387-1.358q-.005-3.082,0-6.164a1.148,1.148,0,0,1,1.309-1.291q5.04,0,10.079,0a1.145,1.145,0,0,1,1.292,1.3q0,3.1,0,6.21a1.152,1.152,0,0,1-1.3,1.3c-1.68.005-3.36,0-5.04,0m-4.045-2.3h8.094v-4.253h-8.094Z" transform="translate(-214.229 -366.065)" fill="#12263f"/>
        <path id="Trazado_659246" data-name="Trazado 659246" d="M239.385,530.813c-.9,0-1.8.006-2.7,0a1.121,1.121,0,0,1-1.232-1.134,1.135,1.135,0,0,1,1.219-1.113q2.719-.015,5.437,0a1.138,1.138,0,0,1,1.232,1.146,1.119,1.119,0,0,1-1.219,1.1c-.914.009-1.827,0-2.741,0" transform="translate(-214.263 -480.98)" fill="#12263f"/>
        <path id="Trazado_659247" data-name="Trazado 659247" d="M464.426,530.812c-.9,0-1.8,0-2.7,0a1.132,1.132,0,1,1-.024-2.253q2.7-.013,5.392,0a1.134,1.134,0,1,1-.021,2.252c-.884,0-1.767,0-2.651,0" transform="translate(-419.025 -480.977)" fill="#12263f"/>
        <path id="Trazado_659248" data-name="Trazado 659248" d="M351.947,530.8c-.9,0-1.8,0-2.7,0a1.125,1.125,0,1,1-.039-2.246q2.741-.022,5.482,0a1.127,1.127,0,1,1-.006,2.247c-.913.009-1.827,0-2.741,0" transform="translate(-316.709 -480.968)" fill="#12263f"/>
        <path id="Trazado_659249" data-name="Trazado 659249" d="M577,530.837c-.9,0-1.8,0-2.7,0a1.131,1.131,0,1,1-.027-2.255q2.741-.008,5.481,0a1.118,1.118,0,0,1,1.16.868,1.09,1.09,0,0,1-.574,1.247,1.631,1.631,0,0,1-.649.128c-.9.014-1.8.006-2.7.006Z" transform="translate(-521.49 -481.001)" fill="#12263f"/>
      </g>
    </g>
    <g id="Grupo_985995" data-name="Grupo 985995" transform="translate(-760.133 -10340.091)">
      <g id="Grupo_985994" data-name="Grupo 985994" clip-path="url(#clip-path-10)">
        <path id="Trazado_659250" data-name="Trazado 659250" d="M6.089,0H48.5c0,.237.014.473.014.71q0,11.285-.008,22.57a1.247,1.247,0,0,0,.4.982C50.476,25.8,52,27.375,53.575,28.9a3.186,3.186,0,0,1,1.014,2.427q-.011,13.062-.008,26.125a2.969,2.969,0,0,1-3.264,3.221q-24.017,0-48.034,0A2.989,2.989,0,0,1,.01,57.4Q0,43.894,0,30.387a3.36,3.36,0,0,1,1.059-2.535c1.549-1.522,3.069-3.074,4.617-4.6a1.246,1.246,0,0,0,.408-.98c-.015-4.087-.011-8.175-.008-12.263q0-5.005.014-10.011M46.5,2.06H8.094v.506q0,14.6-.011,29.2a.78.78,0,0,0,.479.771Q17.48,37.682,26.38,42.855a1.615,1.615,0,0,0,1.8.041Q37.032,38.068,45.92,33.3a.967.967,0,0,0,.591-1Q46.486,17.522,46.5,2.743ZM2.031,31.052v.71q0,12.737,0,25.475c0,1.166.256,1.419,1.427,1.419H51.141c1.165,0,1.42-.255,1.421-1.426q0-12.234,0-24.468c0-.2-.019-.406-.032-.661-.235.117-.393.192-.547.274q-11.455,6.114-22.9,12.241a3.507,3.507,0,0,1-3.736-.06q-9.633-5.622-19.3-11.186c-1.294-.749-2.589-1.5-4.01-2.317M2.766,29.2,6.044,31.02V25.934L2.766,29.2m45.774,2.741,3.138-1.708-3.138-3.142Z" transform="translate(0 -0.001)" fill="#12263f"/>
        <path id="Trazado_659251" data-name="Trazado 659251" d="M173.385,34.968l-.875,1.746a6.009,6.009,0,0,0-5.748.3,5.835,5.835,0,0,0-2.8,3.867,6.075,6.075,0,1,0,12.006,1.356h1.912c.424,2.75-1.982,6.294-5.07,7.5A8.08,8.08,0,0,1,164.049,36.6a7.941,7.941,0,0,1,9.336-1.634" transform="translate(-142.577 -30.063)" fill="#12263f"/>
        <rect id="Rectángulo_344641" data-name="Rectángulo 344641" width="32.271" height="1.952" transform="translate(11.168 30.376)" fill="#12263f"/>
        <rect id="Rectángulo_344642" data-name="Rectángulo 344642" width="21.177" height="1.961" transform="translate(22.261 26.335)" fill="#12263f"/>
        <rect id="Rectángulo_344643" data-name="Rectángulo 344643" width="21.152" height="1.956" transform="translate(11.157 22.282)" fill="#12263f"/>
        <rect id="Rectángulo_344644" data-name="Rectángulo 344644" width="18.141" height="1.943" transform="translate(18.231 34.408)" fill="#12263f"/>
        <path id="Trazado_659252" data-name="Trazado 659252" d="M210.8,54.715l-7.645,7.646-3.632-3.634,1.409-1.315,2.143,2.278,6.351-6.421,1.374,1.447" transform="translate(-175.834 -46.943)" fill="#12263f"/>
        <rect id="Rectángulo_344645" data-name="Rectángulo 344645" width="9.01" height="1.946" transform="translate(11.164 26.326)" fill="#12263f"/>
        <rect id="Rectángulo_344646" data-name="Rectángulo 344646" width="9.022" height="1.962" transform="translate(34.412 22.292)" fill="#12263f"/>
        <rect id="Rectángulo_344647" data-name="Rectángulo 344647" width="8.012" height="1.958" transform="translate(5.094 52.631)" fill="#12263f"/>
      </g>
    </g>
    <g id="Grupo_985997" data-name="Grupo 985997" transform="translate(-499.328 -10336.542)">
      <g id="Grupo_985996" data-name="Grupo 985996" clip-path="url(#clip-path-11)">
        <path id="Trazado_659253" data-name="Trazado 659253" d="M220.544,0c1.031.18,2.079.292,3.09.55,7.2,1.836,12.12,6.274,14.436,13.308a18.889,18.889,0,0,1-2.6,17.426A33.329,33.329,0,0,1,232.148,35a1.457,1.457,0,0,0-.5,1.112c.026,2.309,0,4.619.016,6.928a1.436,1.436,0,0,1-2.6,1.09c-1.5-1.507-3.013-3-4.507-4.515a.859.859,0,0,0-.893-.26,30.282,30.282,0,0,1-13.386-.241,19.135,19.135,0,0,1-11.341-8.323,19.213,19.213,0,0,1-3.123-12.725,19.489,19.489,0,0,1,7.49-13.752A19.338,19.338,0,0,1,213.908.1a1.69,1.69,0,0,0,.322-.1Zm8.372,40.1c0-1.718.037-3.228-.014-4.734a2.2,2.2,0,0,1,.933-2,15.156,15.156,0,0,0,3.838-4.252,16.719,16.719,0,0,0,1.4-15.5A16.593,16.593,0,0,0,223.8,3.427c-3.442-1.01-6.973-.785-10.484-.489a11.973,11.973,0,0,0-3.061.7c-6.465,2.361-10.488,6.9-11.551,13.725-1.016,6.517,1.261,11.921,6.346,16.083a16.025,16.025,0,0,0,9.776,3.647c2.969.11,5.949.276,8.85-.583a2.055,2.055,0,0,1,2.327.653c.891.969,1.852,1.874,2.911,2.935" transform="translate(-168.802)" fill="#12263f"/>
        <path id="Trazado_659254" data-name="Trazado 659254" d="M0,182.021a23.282,23.282,0,0,1,1.486-3.928,8.838,8.838,0,0,1,7.686-4.539c4.709-.119,9.423-.044,14.134-.037a1.4,1.4,0,0,1,1.524,1.411,1.43,1.43,0,0,1-1.613,1.325q-6.587.01-13.175,0a6.926,6.926,0,0,0-7.3,7.324q0,10.121,0,20.242a6.926,6.926,0,0,0,7.327,7.294c2.676,0,5.352.012,8.028-.008a2.079,2.079,0,0,1,1.706.8c.986,1.1,2.091,2.1,3.253,3.245,0-.819,0-1.535,0-2.25.006-1.3.485-1.78,1.79-1.781q7,0,14,0a6.92,6.92,0,0,0,7.267-7.286q0-4.254,0-8.509a5.091,5.091,0,0,1,.016-.617,1.359,1.359,0,0,1,2.715.026,4.224,4.224,0,0,1,.013.48c0,2.928.007,5.855,0,8.783a9.61,9.61,0,0,1-9.9,9.867q-6.176.011-12.351,0H25.8c0,1.565,0,3.068,0,4.571a1.373,1.373,0,0,1-2.331,1.056c-.157-.133-.3-.281-.446-.426-1.586-1.584-3.158-3.182-4.771-4.739a1.7,1.7,0,0,0-1.054-.442c-2.424-.038-4.849-.016-7.273-.021a9.571,9.571,0,0,1-9.815-8.267A1.046,1.046,0,0,0,0,205.353V182.021" transform="translate(0 -149.63)" fill="#12263f"/>
        <path id="Trazado_659255" data-name="Trazado 659255" d="M69.815,309.393H83.744a4.749,4.749,0,0,1,.685.023,1.354,1.354,0,0,1,0,2.7,4.726,4.726,0,0,1-.685.024h-28c-1.114-.006-1.775-.517-1.776-1.371s.661-1.372,1.774-1.373q7.033,0,14.066,0" transform="translate(-46.553 -266.846)" fill="#12263f"/>
        <path id="Trazado_659256" data-name="Trazado 659256" d="M67.115,365.282q5.727,0,11.454,0c1.113,0,1.773.615,1.659,1.522a1.293,1.293,0,0,1-1.147,1.185,4.064,4.064,0,0,1-.751.035q-11.214,0-22.428,0c-1.248,0-1.914-.47-1.928-1.355-.014-.906.668-1.39,1.962-1.39h11.18" transform="translate(-46.551 -315.049)" fill="#12263f"/>
        <path id="Trazado_659257" data-name="Trazado 659257" d="M65.356,256.248H55.887a4.727,4.727,0,0,1-.685-.024,1.354,1.354,0,0,1,0-2.7,4.711,4.711,0,0,1,.685-.024H74.961c1.113.006,1.775.518,1.775,1.372s-.661,1.371-1.774,1.372q-4.8,0-9.606,0" transform="translate(-46.553 -218.642)" fill="#12263f"/>
        <path id="Trazado_659258" data-name="Trazado 659258" d="M265.893,368.089a1.361,1.361,0,1,1,1.392-1.33,1.412,1.412,0,0,1-1.392,1.33" transform="translate(-228.181 -315.123)" fill="#12263f"/>
        <path id="Trazado_659259" data-name="Trazado 659259" d="M318.665,82.924c0-.549-.023-1.1,0-1.646a2.489,2.489,0,0,1,1.656-2.305c.252-.105.523-.164.779-.261a3.047,3.047,0,0,0,1.927-3.406,3.085,3.085,0,0,0-3.085-2.5,3.03,3.03,0,0,0-2.941,2.648c-.179,1.311-.691,1.857-1.628,1.736-.852-.11-1.2-.741-1.1-2.011a5.765,5.765,0,0,1,10.007-3.224,5.749,5.749,0,0,1-2.41,9.379.6.6,0,0,0-.485.682c.031.8.02,1.6.006,2.4-.017,1.006-.553,1.639-1.37,1.648s-1.357-.63-1.371-1.628c-.007-.5,0-1.006,0-1.509h.007" transform="translate(-271.048 -60.434)" fill="#12263f"/>
        <path id="Trazado_659260" data-name="Trazado 659260" d="M348.994,207.363a1.379,1.379,0,0,1-1.334,1.374,1.344,1.344,0,0,1-1.382-1.315,1.368,1.368,0,0,1,1.322-1.387,1.4,1.4,0,0,1,1.394,1.328" transform="translate(-298.659 -177.702)" fill="#12263f"/>
      </g>
    </g>
  </g>
</svg>
