<svg id="Grupo_141510" data-name="Grupo 141510" xmlns="http://www.w3.org/2000/svg" xmlns:xlink="http://www.w3.org/1999/xlink" width="505" height="333.723" viewBox="0 0 505 333.723">
  <defs>
    <clipPath id="clip-path">
      <rect id="Rectángulo_36977" data-name="Rectángulo 36977" width="505" height="333.723" fill="none"/>
    </clipPath>
    <clipPath id="clip-path-3">
      <rect id="Rectángulo_36964" data-name="Rectángulo 36964" width="4.454" height="17.313" fill="none"/>
    </clipPath>
    <clipPath id="clip-path-4">
      <rect id="Rectángulo_36965" data-name="Rectángulo 36965" width="36.668" height="29.759" fill="none"/>
    </clipPath>
    <clipPath id="clip-path-5">
      <rect id="Rectángulo_36966" data-name="Rectángulo 36966" width="5.386" height="17.042" fill="none"/>
    </clipPath>
    <clipPath id="clip-path-6">
      <rect id="Rectángulo_36968" data-name="Rectángulo 36968" width="12.186" height="11.066" fill="none"/>
    </clipPath>
    <clipPath id="clip-path-7">
      <rect id="Rectángulo_36969" data-name="Rectángulo 36969" width="11.256" height="11.173" fill="none"/>
    </clipPath>
    <clipPath id="clip-path-8">
      <rect id="Rectángulo_36970" data-name="Rectángulo 36970" width="19.955" height="54.591" fill="#c4bfbf"/>
    </clipPath>
    <clipPath id="clip-path-9">
      <rect id="Rectángulo_36972" data-name="Rectángulo 36972" width="18.345" height="29.275" fill="none"/>
    </clipPath>
    <linearGradient id="linear-gradient" x1="0.5" x2="0.5" y2="1" gradientUnits="objectBoundingBox">
      <stop offset="0" stop-color="#f5f5f5"/>
      <stop offset="0.25" stop-color="#f5f5f5"/>
      <stop offset="1" stop-color="#afafaf"/>
    </linearGradient>
    <clipPath id="clip-path-10">
      <rect id="Rectángulo_36974" data-name="Rectángulo 36974" width="12.854" height="9.253" fill="none"/>
    </clipPath>
    <clipPath id="clip-path-11">
      <rect id="Rectángulo_36975" data-name="Rectángulo 36975" width="61.571" height="66.403" fill="none"/>
    </clipPath>
  </defs>
  <g id="Grupo_141509" data-name="Grupo 141509" clip-path="url(#clip-path)">
    <g id="Grupo_141508" data-name="Grupo 141508">
      <g id="Grupo_141507" data-name="Grupo 141507" clip-path="url(#clip-path)">
        <path id="Trazado_117584" data-name="Trazado 117584" d="M502.615,1664.886H2.384A2.193,2.193,0,0,0,0,1666.793v.512a2.193,2.193,0,0,0,2.384,1.907H502.615a2.193,2.193,0,0,0,2.384-1.907v-.512a2.193,2.193,0,0,0-2.384-1.907" transform="translate(0 -1335.488)" fill="#12263f"/>
        <rect id="Rectángulo_36962" data-name="Rectángulo 36962" width="75.965" height="109.796" transform="translate(111.292 37.262)" fill="#12263f"/>
        <path id="Trazado_117585" data-name="Trazado 117585" d="M590.345,595.325h62.112a1.77,1.77,0,0,0,0-3.539H590.345a1.77,1.77,0,1,0,0,3.539" transform="translate(-472.125 -474.701)" fill="#f0f3f9"/>
        <path id="Trazado_117586" data-name="Trazado 117586" d="M652.456,632.928H590.345a1.77,1.77,0,1,0,0,3.539h62.112a1.77,1.77,0,0,0,0-3.539" transform="translate(-472.125 -507.703)" fill="#f0f3f9"/>
        <path id="Trazado_117587" data-name="Trazado 117587" d="M652.456,674.07H590.345a1.77,1.77,0,1,0,0,3.539h62.112a1.77,1.77,0,0,0,0-3.539" transform="translate(-472.125 -540.705)" fill="#f0f3f9"/>
        <path id="Trazado_117588" data-name="Trazado 117588" d="M838.373,525.625l-3.065-.023-.925-2.922-.969,2.908-3.065-.023,2.466,1.82-.969,2.908,2.493-1.783,2.466,1.82-.925-2.922Z" transform="translate(-666.065 -419.267)" fill="#ecd165"/>
        <path id="Trazado_117589" data-name="Trazado 117589" d="M787.238,525.239l-.925-2.922-.969,2.908-3.065-.023,2.466,1.82-.969,2.908,2.493-1.783,2.466,1.82-.925-2.922,2.493-1.783Z" transform="translate(-627.505 -418.976)" fill="#ecd165"/>
        <path id="Trazado_117590" data-name="Trazado 117590" d="M739.167,524.876l-.925-2.922-.969,2.908-3.065-.023,2.466,1.82-.969,2.908,2.493-1.783,2.466,1.82-.925-2.922,2.493-1.783Z" transform="translate(-588.945 -418.686)" fill="#ecd165"/>
        <path id="Trazado_117591" data-name="Trazado 117591" d="M691.1,524.514l-.925-2.922L689.2,524.5l-3.065-.023,2.466,1.82-.969,2.908,2.493-1.783,2.466,1.82-.925-2.922,2.493-1.783Z" transform="translate(-550.385 -418.395)" fill="#ecd165"/>
        <path id="Trazado_117592" data-name="Trazado 117592" d="M643.026,524.152l-.925-2.922-.969,2.908-3.065-.023,2.466,1.82-.969,2.908,2.493-1.783,2.466,1.82-.925-2.922,2.493-1.783Z" transform="translate(-511.825 -418.104)" fill="#ecd165"/>
        <path id="Trazado_117593" data-name="Trazado 117593" d="M676.5,264.984a25.531,25.531,0,1,1-25.531-25.531A25.531,25.531,0,0,1,676.5,264.984" transform="translate(-501.698 -192.077)" fill="#f0f3f9"/>
        <path id="Trazado_117594" data-name="Trazado 117594" d="M693.754,269.321s-.588-1.2-3.528-.874-3.769,2.971-3.9,4.731-1.826,22.23-5.253,25.251l10.949-1.649Z" transform="translate(-546.319 -215.288)" fill="#373f51"/>
        <path id="Trazado_117595" data-name="Trazado 117595" d="M726.1,272.75s-3.136-1.058-4.786.51a3.316,3.316,0,0,0-.716,3.642Z" transform="translate(-577.818 -218.507)" fill="#575ba3"/>
        <path id="Trazado_117596" data-name="Trazado 117596" d="M732.341,280.322s-.058-6.914-11.186-6.118a5.44,5.44,0,0,0-4.471,2.906c-1.252,2.446-1.8,6.752,2.247,13.657Z" transform="translate(-574.154 -219.902)" fill="#373f51"/>
        <path id="Trazado_117597" data-name="Trazado 117597" d="M736.359,368.563a1.4,1.4,0,0,0-.7-.588l-.013,0-.393-.076c-.208-.038-.413-.074-.618-.107a17.4,17.4,0,0,1-.39-6.853l-9.054-2.757c.715,5.94-.087,8.595-.483,9.487-.169.023-.336.046-.5.071-4.422.656,15.759,9.391,12.154.826" transform="translate(-580.41 -287.313)" fill="#cd8085"/>
        <path id="Trazado_117598" data-name="Trazado 117598" d="M739.615,308.6s-11.044.5-11.253-6.378-1.774-11.453,5.268-12.066,8.493,1.972,9.121,4.252-.27,13.884-3.137,14.192" transform="translate(-584.022 -232.674)" fill="#dcabb0"/>
        <path id="Trazado_117599" data-name="Trazado 117599" d="M697.855,420.027a25.338,25.338,0,0,1-4.631,2.493l-.181.073-.054.021c-.237.1-.477.188-.717.274a25.245,25.245,0,0,1-5.074,1.277,25.59,25.59,0,0,1-18.482-4.463h0c-.131-.092-.26-.187-.389-.282v0c-.164-.119-.326-.242-.486-.368q-.95-.741-1.827-1.566c1.071-4.356,1.962-7.714,2.445-8.195a4.092,4.092,0,0,1,1-.688h0c2.749-1.431,8.564-2.2,8.564-2.2l.014.017a2.908,2.908,0,0,0,.306.3h0a9.316,9.316,0,0,0,1.158.835,13.939,13.939,0,0,0,7.206,2.134c1.614-.01,2.36-.437,2.657-.972a2.389,2.389,0,0,0-.283-2.137l-.005-.008a3.272,3.272,0,0,1,.4.084c.025.006.05.014.073.021l.567.177c7.513,2.376,7.641,3.32,7.641,3.32,1.316,1.44,2.359,4.193,3.281,7.3q-.872.823-1.818,1.563-.665.52-1.363.994" transform="translate(-534.242 -325.993)" fill="#dce1f1"/>
        <path id="Trazado_117600" data-name="Trazado 117600" d="M742.236,289.8c-.44-3.576-4.016-5.832-7.042-5.832s-5.927.309-5.927.309c-6.819,3.049-3.245,13.7-3.245,13.7s3.971-2.678,4.466-5.979c.312-2.077,3.634-3.193,5.567-3.994.427.265,4.858,3.115,4.358,6.744,0,0,2.263-1.375,1.823-4.951" transform="translate(-581.627 -227.789)" fill="#373f51"/>
        <rect id="Rectángulo_36963" data-name="Rectángulo 36963" width="75.965" height="109.796" transform="translate(338.018 37.262)" fill="#12263f"/>
        <path id="Trazado_117601" data-name="Trazado 117601" d="M1736.291,595.325H1798.4a1.77,1.77,0,0,0,0-3.539h-62.112a1.77,1.77,0,0,0,0,3.539" transform="translate(-1391.347 -474.701)" fill="#f0f3f9"/>
        <path id="Trazado_117602" data-name="Trazado 117602" d="M1798.4,632.928h-62.111a1.77,1.77,0,1,0,0,3.539H1798.4a1.77,1.77,0,1,0,0-3.539" transform="translate(-1391.346 -507.703)" fill="#f0f3f9"/>
        <path id="Trazado_117603" data-name="Trazado 117603" d="M1798.4,674.07h-62.111a1.77,1.77,0,1,0,0,3.539H1798.4a1.77,1.77,0,1,0,0-3.539" transform="translate(-1391.346 -540.705)" fill="#f0f3f9"/>
        <path id="Trazado_117604" data-name="Trazado 117604" d="M1980.329,522.679l-.969,2.908-3.065-.023,2.466,1.82-.969,2.908,2.493-1.783,2.466,1.82-.925-2.922,2.493-1.783-3.065-.023Z" transform="translate(-1585.285 -419.267)" fill="#ecd165"/>
        <path id="Trazado_117605" data-name="Trazado 117605" d="M1932.258,522.317l-.969,2.908-3.065-.023,2.466,1.82-.969,2.908,2.493-1.783,2.466,1.82-.925-2.922,2.493-1.783-3.065-.023Z" transform="translate(-1546.725 -418.977)" fill="#ecd165"/>
        <path id="Trazado_117606" data-name="Trazado 117606" d="M1884.188,521.955l-.969,2.908-3.065-.023,2.466,1.82-.969,2.908,2.493-1.783,2.466,1.82-.925-2.922,2.494-1.783-3.065-.023Z" transform="translate(-1508.166 -418.686)" fill="#ecd165"/>
        <path id="Trazado_117607" data-name="Trazado 117607" d="M1836.117,521.592l-.969,2.908-3.065-.023,2.466,1.82-.969,2.908,2.493-1.783,2.466,1.82-.925-2.922,2.493-1.783-3.065-.023Z" transform="translate(-1469.606 -418.395)" fill="#ecd165"/>
        <path id="Trazado_117608" data-name="Trazado 117608" d="M1788.047,521.23l-.969,2.908-3.065-.023,2.466,1.82-.969,2.907L1788,527.06l2.466,1.82-.925-2.922,2.493-1.783-3.065-.023Z" transform="translate(-1431.046 -418.104)" fill="#ecd165"/>
        <path id="Trazado_117609" data-name="Trazado 117609" d="M1822.45,264.985a25.531,25.531,0,1,1-25.531-25.531,25.531,25.531,0,0,1,25.531,25.531" transform="translate(-1420.919 -192.078)" fill="#f0f3f9"/>
        <path id="Trazado_117610" data-name="Trazado 117610" d="M1881.55,355.27a12.974,12.974,0,0,0,1.027-5.644l7.853-5.4c.68,6.666,1.859,8.456,1.8,11.084,0,.039-4.191,2.778-7.183,2.761-2.242-.013-3.507-2.774-3.5-2.8" transform="translate(-1509.285 -276.123)" fill="#945c2e"/>
        <path id="Trazado_117611" data-name="Trazado 117611" d="M1841.842,393.246a25.547,25.547,0,0,1-6.063,8.776q-.873.823-1.819,1.562-.664.521-1.363,1a25.371,25.371,0,0,1-4.632,2.493l-.18.074-.054.021q-.357.144-.719.274a25.151,25.151,0,0,1-5.074,1.278,25.7,25.7,0,0,1-3.679.263,25.4,25.4,0,0,1-14.8-4.727c-.13-.092-.259-.187-.39-.283h0c-.163-.119-.325-.242-.486-.369q-.95-.74-1.827-1.565a25.765,25.765,0,0,1-2.763-3.059c.807-1.422,1.613-2.743,2.393-3.895,1.1-1.615,7.223-3.921,14.25-5.756l.012.028h0a3.576,3.576,0,0,0,3.659,2.336c2.841,0,6.384-1.952,6.6-4.553.019,0,11.24,2.114,13.565,2.936a7.058,7.058,0,0,1,3.371,3.169" transform="translate(-1442.259 -310.544)" fill="#4adbd1"/>
        <path id="Trazado_117612" data-name="Trazado 117612" d="M1865.674,307.94s9.557.437,9.738-5.519,1.535-9.911-4.559-10.442-7.349,1.706-7.893,3.68.233,12.014,2.715,12.281" transform="translate(-1494.241 -234.147)" fill="#a36d3c"/>
        <path id="Trazado_117613" data-name="Trazado 117613" d="M1869.239,291.014s-.752-8.52-9.416-7.819c-6.248.505-4.473-5.915-4.473-5.915a89,89,0,0,1,10.926.131c9.856.96,3.839,12.316,2.964,13.6" transform="translate(-1488.082 -222.33)" fill="#373f51"/>
        <path id="Trazado_117614" data-name="Trazado 117614" d="M204.7,1630.456c-6.987-.3-7.255,6.8-7.255,6.8h14.285s-.044-7.106-7.03-6.8" transform="translate(-158.377 -1307.863)" fill="#f4a338"/>
        <path id="Trazado_117615" data-name="Trazado 117615" d="M412.539,1630.456c-6.987-.3-7.255,6.8-7.255,6.8h14.285s-.043-7.106-7.031-6.8" transform="translate(-325.099 -1307.863)" fill="#f4a338"/>
        <path id="Trazado_117616" data-name="Trazado 117616" d="M368.279,1131.888l-14.4-.182-3.439-.043a480.651,480.651,0,0,1-9.77-63.312c-.091-1.116-.2-2.133-.311-3.078v-59.036c10.351,1.678,19.868,4.19,19.868,4.19l.558,7.479.034.522Z" transform="translate(-273.018 -807.152)" fill="#12263f"/>
        <path id="Trazado_117617" data-name="Trazado 117617" d="M224.15,1023.285v22.029s-2.041.531-2.3,1.993-1,59.953-14.127,97.652H190.34s.577-114.989,3.783-122.43Z" transform="translate(-152.681 -820.222)" fill="#12263f"/>
        <path id="Trazado_117618" data-name="Trazado 117618" d="M219.469,1025a14.787,14.787,0,0,0,12.552-6.393l-.4-.235a14.342,14.342,0,0,1-12.459,6.16l-.008.466c.106,0,.212,0,.317,0" transform="translate(-175.793 -816.889)" fill="#272253"/>
        <path id="Trazado_117619" data-name="Trazado 117619" d="M416.6,1031.3a14.074,14.074,0,0,1-6.443-5.231l.4-.237a13.658,13.658,0,0,0,5.993,4.826Z" transform="translate(-329.008 -822.871)" fill="#272253"/>
        <path id="Trazado_117620" data-name="Trazado 117620" d="M277.063,601.574c1.31-1.637-4.063-2.255-4.079-2.362-.722-5.076-1.3-10.747-1.3-10.747l-13.048-1.389c-.284,4.005-.016,7.562-1.2,12.2-.024.1-6.39.819.4,7.786,3.488,3.579,18.108,1.508,19.222-5.486" transform="translate(-204.316 -470.923)" fill="#965c2e"/>
        <path id="Trazado_117621" data-name="Trazado 117621" d="M224.364,689.355c-.113.924-.221,1.954-.287,2.925a3.737,3.737,0,0,1-3.152,3.4c-9.369,1.659-11.256-1.128-11.256-1.128-2.13,5.79.8,20.661.966,25.506a1.558,1.558,0,0,1-1.582,1.611l-44.849-.685a2.452,2.452,0,0,1-2.415-2.546c.034-.914.024-2.07-.021-3.378-.224-6.141-1.259-15.655-2.252-19.367-1.777-6.659-4.737-16.89-6.483-26.2a40.847,40.847,0,0,1-.79-11.52c.269-6.511,2.082-7.066,3.884-7.965,2.931-1.463,8.125-2.733,19.145-3.807a3.784,3.784,0,0,0-.088.568c0,2.475,5.284,4.679,9.579,4.4,3.621-.237,5.926-2.921,5.926-4.411,0-.211-.025-.435-.032-.692,11.776.932,18.859,3.989,18.859,3.989s10.556,14.688,14.53,32.494a19.953,19.953,0,0,1,.319,6.812" transform="translate(-122.049 -518.237)" fill="#f4a338"/>
        <g id="Grupo_141482" data-name="Grupo 141482" transform="translate(83.604 144.275)" opacity="0.6">
          <g id="Grupo_141481" data-name="Grupo 141481">
            <g id="Grupo_141480" data-name="Grupo 141480" clip-path="url(#clip-path-3)">
              <path id="Trazado_117622" data-name="Trazado 117622" d="M422.562,729.215s3.643,13.473.351,17.292c0,0,3.235.2,3.745-.6,1.855-2.9-4.1-16.69-4.1-16.69" transform="translate(-422.562 -729.215)" fill="#c27123"/>
            </g>
          </g>
        </g>
        <g id="Grupo_141485" data-name="Grupo 141485" transform="translate(38.685 171.726)" opacity="0.6">
          <g id="Grupo_141484" data-name="Grupo 141484">
            <g id="Grupo_141483" data-name="Grupo 141483" clip-path="url(#clip-path-4)">
              <path id="Trazado_117623" data-name="Trazado 117623" d="M232.2,869.871s-20.923,7.9-24.878,9.084-3.56,16.589-3.56,16.589a4,4,0,0,1-4.476,2.106c-3.357-.527-.4-10.27-2.107-16.853s-1.646-9.48-1.646-9.48l35.219-3.357Z" transform="translate(-195.529 -867.962)" fill="#c27123"/>
            </g>
          </g>
        </g>
        <g id="Grupo_141488" data-name="Grupo 141488" transform="translate(46.012 145.218)" opacity="0.6">
          <g id="Grupo_141487" data-name="Grupo 141487">
            <g id="Grupo_141486" data-name="Grupo 141486" clip-path="url(#clip-path-5)">
              <path id="Trazado_117624" data-name="Trazado 117624" d="M237.862,744.265,236.656,739c-1.4-5.266-2.819-4.989-2.819-4.989h0a.878.878,0,0,0-.884.288c-1.695,1.784,2.65,12.844,2.65,12.844s-1.613,5.252.873,3.541c1.554-1.07,1.583-3.942,1.386-6.416Z" transform="translate(-232.561 -733.982)" fill="#c27123"/>
            </g>
          </g>
        </g>
        <path id="Trazado_117625" data-name="Trazado 117625" d="M294.886,805.422a9.183,9.183,0,0,0-11.365,2.126l-1.665.621-3.2.763-21.511,1.377s-2.285,11.607-4.792,12.836c0,0,22.011-1.748,32.21-9.221l1.284-.855a10.528,10.528,0,0,0,5.738-2.1c2.7-1.973,2.16-1.2,4.107-2.567s-.805-2.978-.805-2.978" transform="translate(-202.424 -645.172)" fill="#965c2e"/>
        <path id="Trazado_117626" data-name="Trazado 117626" d="M291.237,802.132a1.735,1.735,0,0,1,1.179.784c1.612,2.556,7.028,11.716,1.87,11.808-5.995.107-14.808-.154-26.35-7.526a94.658,94.658,0,0,0-10.067-5.426l-6.072.489s-2.9-6.585-1.332-6.956c6.173-1.459,4.716-1.572,7.092-1.438,1.686.095,2.821.149,7.671,2.717,4.41,2.335,11.806,3.153,26.008,5.549" transform="translate(-200.538 -636.766)" fill="#a56d3c"/>
        <path id="Trazado_117627" data-name="Trazado 117627" d="M166.386,698.039a70.429,70.429,0,0,1,8.382,27.388s3.624-.885,4.257,0c2.006,2.8-1.474,11.55-5.589,12.479,0,0-11.066,1.258-13.743.336,0,0-2.631-6.214-5.721-30.154Z" transform="translate(-123.509 -559.932)" fill="#d1872b"/>
        <path id="Trazado_117628" data-name="Trazado 117628" d="M206.129,1189.612c1.4-9.215,2.553-20.15,3.189-31.56.1-1.744.187-3.539.266-5.334.087-1.98.163-3.986.226-5.961a9.024,9.024,0,0,0-.345-2.222,8.68,8.68,0,0,1-.326-2.02c.186-7.51.032-14.388-.1-20.456q-.053-2.388-.1-4.677c-.254-13.8-.35-21.616-.347-21.693,0,.077-.347,7.856-.093,21.673q.042,2.293.1,4.679c.135,6.062.289,12.934.1,20.432a9.047,9.047,0,0,0,.341,2.157,8.669,8.669,0,0,1,.331,2.081c-.063,1.973-.139,3.977-.226,5.955-.079,1.793-.168,3.586-.266,5.328-.635,11.394-1.481,22.427-2.876,31.626Z" transform="translate(-165.245 -878.906)" fill="#2f2c60"/>
        <path id="Trazado_117629" data-name="Trazado 117629" d="M272.906,504.8s-14.7,3.414-16.68-5.771-5.219-14.929,4.08-17.5,11.885.542,13.293,3.446,3.078,18.7-.693,19.821" transform="translate(-203.769 -385.495)" fill="#a56d3c"/>
        <path id="Trazado_117630" data-name="Trazado 117630" d="M239.006,474.866s-1.1-12.112,12.116-14.524c9.594-1.752,7.489-9.887,7.489-9.887s-15.805,2.014-18.917,2.907c-14.71,4.225-2.379,19.794-.687,21.5" transform="translate(-186.549 -361.333)" fill="#373f51"/>
        <rect id="Rectángulo_36967" data-name="Rectángulo 36967" width="127.527" height="184.321" transform="translate(198.997 0)" fill="#12263f"/>
        <path id="Trazado_117631" data-name="Trazado 117631" d="M1052.53,683.234H1156.8a2.971,2.971,0,0,0,0-5.941H1052.53a2.971,2.971,0,1,0,0,5.941" transform="translate(-841.904 -543.291)" fill="#f0f3f9"/>
        <path id="Trazado_117632" data-name="Trazado 117632" d="M1156.8,746.36h-104.27a2.971,2.971,0,1,0,0,5.941H1156.8a2.971,2.971,0,1,0,0-5.941" transform="translate(-841.905 -598.693)" fill="#f0f3f9"/>
        <path id="Trazado_117633" data-name="Trazado 117633" d="M1156.8,815.429h-104.27a2.971,2.971,0,1,0,0,5.941H1156.8a2.971,2.971,0,1,0,0-5.941" transform="translate(-841.905 -654.096)" fill="#f0f3f9"/>
        <path id="Trazado_117634" data-name="Trazado 117634" d="M1197.172,128.672a42.861,42.861,0,1,1-42.86-42.86,42.86,42.86,0,0,1,42.86,42.86" transform="translate(-891.55 -68.834)" fill="#f0f3f9"/>
        <path id="Trazado_117635" data-name="Trazado 117635" d="M1296.717,187.012c-8.068-4.178-13.6-5.91-13.277-11.213s-2.111-28.132-17.615-22.158c0,0-2.486-1.105-3.6-.941a3.064,3.064,0,0,1,1.374.652,12.019,12.019,0,0,0-6.512,1.247c-1.176.668-2.325,2.439-3.333,4.9q-.1.239-.195.489a37.475,37.475,0,0,0-1.169,3.57,55.853,55.853,0,0,0-1.491,7.4v0q-.175,1.283-.3,2.588s0,0,0,.005c-.005.039-.009.08-.012.119-.581,6.422-.149,13.081,1.966,17.615a11.19,11.19,0,0,0,2.5,3.56,17.414,17.414,0,0,1-1.211-3.62,42.745,42.745,0,0,1-.9-6.082,38.657,38.657,0,0,0,1.356,6.062,18.277,18.277,0,0,0,2.113,4.663c4.447,2.919,10.653,8.785,16.243,14.856,1.25,1.357,2.467,2.722,3.629,4.07a0,0,0,0,1,0,0c1.994,2.315,3.82,4.569,5.341,6.608a.005.005,0,0,0,0,0c.023.03.044.057.066.087.113.15.223.3.333.448a42.975,42.975,0,0,0,24.854-27.627,39.878,39.878,0,0,0-10.164-7.3" transform="translate(-1002.97 -122.45)" fill="#373f51"/>
        <path id="Trazado_117636" data-name="Trazado 117636" d="M1284.059,310.851c1.434-.668.551-12.868.551-12.868l12.145-2.406c.844,4,.4,10.978,1.91,11.277.049.01-2.278,4.629-5.838,5.6-3.787,1.033-8.821-1.578-8.768-1.6" transform="translate(-1030.008 -237.097)" fill="#cd8085"/>
        <path id="Trazado_117637" data-name="Trazado 117637" d="M1293.848,168.505s-6.272-5.867-12.713.579a83.311,83.311,0,0,1,12.713-.579" transform="translate(-1027.662 -133.206)" fill="#575ba3"/>
        <path id="Trazado_117638" data-name="Trazado 117638" d="M1270.219,194.461s3.361-5.311,4.168-9.853c.576-3.242-1.075-15.261-13.153-13.53a16.407,16.407,0,0,0-6.8,2.572c-2.622,1.771-6.407,5.595-2.175,16.082l1.1,3.543Z" transform="translate(-1002.971 -137.094)" fill="#373f51"/>
        <path id="Trazado_117639" data-name="Trazado 117639" d="M1413.581,453.365a42.7,42.7,0,0,1-10.063,5.855c-.1.043-.2.083-.3.124-.016-.117-.034-.234-.05-.351v0s0,0,0,0c-.016-.1-.03-.2-.044-.3a.005.005,0,0,1,0,0c-.239-1.656-.464-3.2-.655-4.523-.391-2.7-.654-4.493-.654-4.493l2.79-.3,8.475-.91s.039.216.115.858h0c.087.719.218,1.971.393,4.051" transform="translate(-1124.46 -359.728)" fill="#dcabb0"/>
        <path id="Trazado_117640" data-name="Trazado 117640" d="M1164.239,350.864l-.009.133-1.2,16.809s-2.837,3.1-5.855,6.252c-.051.053-.1.108-.156.163l0,0-.857.891a43.091,43.091,0,0,1-9.594-10.426c1.658-1.737,3.454-3.555,5.267-5.28,4.658-4.428,9.44-8.244,12.33-8.537.023,0,.046-.005.068-.007Z" transform="translate(-919.72 -281.446)" fill="#dcabb0"/>
        <path id="Trazado_117641" data-name="Trazado 117641" d="M1228.706,367.626c-2.08-10-5.441-14.331-5.441-14.331l0,0c-3.849-2.919-10.478-5.272-15.852-5.87-.078-.011-.158-.018-.236-.026h0a7.263,7.263,0,0,1-6.464,3.3,7.974,7.974,0,0,1-6.494-3.152c-.144-.191-.276-.383-.4-.574-1.171.032-2.21.067-3.133.106-.156.005-.31.013-.459.02q-.688.029-1.286.06a40.243,40.243,0,0,0-5.063.441s0,0,0,0v0s-3.025-.628-12.827,7.7c0,0,5.542,12.725,5.608,15.8l.151-.111h0q-.109.81-.193,1.621v0a42.911,42.911,0,0,0,40.2,5.824q.605-.218,1.2-.461c.012-.129.026-.259.041-.386v0s0,0,0,0c.007-.073.014-.144.021-.216.193-1.806.429-3.562.691-5.251h0Z" transform="translate(-939.357 -278.321)" fill="#f4a338"/>
        <path id="Trazado_117642" data-name="Trazado 117642" d="M1255.522,220.17s15.176.25,15.187-9.2,1.976-15.788-7.713-16.348-11.576,3.046-12.347,6.2.925,19.042,4.873,19.351" transform="translate(-1003.063 -156.068)" fill="#daa9ae"/>
        <path id="Trazado_117643" data-name="Trazado 117643" d="M1278.854,185.893s4.155,11.091,10.532,12.731,9.143-.069,9.143-.069a18.057,18.057,0,0,1-5.906-10.669s-10.634-7.272-13.769-1.993" transform="translate(-1025.833 -147.573)" fill="#373f51"/>
        <path id="Trazado_117644" data-name="Trazado 117644" d="M1252.9,190.9s-3.1,2.476-3.86,4.884-1.1,7.363-2.541,7.194c0,0-3.13-7.538.388-11.8,3.73-4.522,6.013-.275,6.013-.275" transform="translate(-998.853 -151.681)" fill="#373f51"/>
        <path id="Trazado_117645" data-name="Trazado 117645" d="M1468.908,566.224l-5.145-.039-1.553-4.905-1.627,4.881-5.145-.039,4.14,3.056-1.627,4.881,4.185-2.993,4.14,3.056-1.553-4.905Z" transform="translate(-1167.48 -450.23)" fill="#ecd165"/>
        <path id="Trazado_117646" data-name="Trazado 117646" d="M1383.065,565.577l-1.553-4.905-1.627,4.881-5.145-.039,4.139,3.055-1.627,4.881,4.185-2.993,4.14,3.056-1.553-4.905,4.185-2.993Z" transform="translate(-1102.748 -449.743)" fill="#ecd165"/>
        <path id="Trazado_117647" data-name="Trazado 117647" d="M1302.366,564.969l-1.553-4.905-1.626,4.881-5.145-.039,4.14,3.056-1.627,4.881,4.185-2.993,4.139,3.056L1303.326,568l4.185-2.993Z" transform="translate(-1038.015 -449.255)" fill="#ecd165"/>
        <path id="Trazado_117648" data-name="Trazado 117648" d="M1221.668,564.36l-1.553-4.905-1.627,4.881-5.145-.039,4.139,3.056-1.627,4.881,4.185-2.993,4.14,3.056-1.553-4.905,4.185-2.993Z" transform="translate(-973.283 -448.767)" fill="#ecd165"/>
        <path id="Trazado_117649" data-name="Trazado 117649" d="M1140.969,563.752l-1.553-4.905-1.627,4.881-5.145-.039,4.14,3.056-1.627,4.881,4.185-2.993,4.14,3.056-1.553-4.905,4.186-2.993Z" transform="translate(-908.55 -448.279)" fill="#ecd165"/>
        <path id="Trazado_117650" data-name="Trazado 117650" d="M1908.262,795.178l-5.519-.446a9.541,9.541,0,0,0-11.9,1.613s-2.187,2.492.178,3.2,1.581.126,4.889,1.191,6.911.649,8.671-1.116l1.943-1.973Z" transform="translate(-1515.998 -636.369)" fill="#daa9ae"/>
        <path id="Trazado_117651" data-name="Trazado 117651" d="M1958.154,658.167v6.577s31.185,4.118,35.275,3.787c2.518-.2,17.029-11.148,19.683-18.206,1.656-4.4,2.814-7.962,2.814-7.962l3.042-18.863s-9.2.693-10.712,3.748-16.818,26-17.991,28.005c0,0-29.1,2.579-32.111,2.914" transform="translate(-1570.734 -500.14)" fill="#e8e8e8"/>
        <path id="Trazado_117652" data-name="Trazado 117652" d="M2276.31,562.61s-1.4,11.468-1.556,13.089l13.039,4.473,2.336-8.088a28,28,0,0,1-2.4-14.044Z" transform="translate(-1824.694 -447.633)" fill="#c88d94"/>
        <path id="Trazado_117653" data-name="Trazado 117653" d="M2260.54,495.183s13.295.608,13.545-7.678,2.136-13.787-6.342-14.525-10.224,2.373-10.98,5.118.324,16.713,3.777,17.084" transform="translate(-1810.079 -379.313)" fill="#daa9ae"/>
        <path id="Trazado_117654" data-name="Trazado 117654" d="M2263.41,466.49s-.994-11.056-12.838-10.659-9.686-13.315,8.8-7.886c12.954,3.805,5.235,16.791,4.041,18.545" transform="translate(-1799.404 -358.298)" fill="#373f51"/>
        <path id="Trazado_117655" data-name="Trazado 117655" d="M2160.731,1629.488l-2.082,6.694H2138s5.283-9.029,22.734-6.694" transform="translate(-1714.995 -1306.785)" fill="#afafaf"/>
        <path id="Trazado_117656" data-name="Trazado 117656" d="M2356.724,1629.488l-1.843,6.694h-18.288s4.678-9.029,20.131-6.694" transform="translate(-1874.299 -1306.785)" fill="#afafaf"/>
        <path id="Trazado_117657" data-name="Trazado 117657" d="M2172.229,997.675l35.419.766S2194.3,1064.723,2178.8,1123.4l-18.695.546Z" transform="translate(-1732.728 -800.285)" fill="#373f51"/>
        <path id="Trazado_117658" data-name="Trazado 117658" d="M2312.62,991.89s10.316,51.087,4.42,127.418h-16.008L2291,1018.689h0c-.292-2.935-4.819-5.509-4.819-5.509l-.336-19.6Z" transform="translate(-1833.595 -795.645)" fill="#373f51"/>
        <path id="Trazado_117659" data-name="Trazado 117659" d="M2364.064,1022.227a15.36,15.36,0,0,1-13.041-6.643l.418-.244a14.8,14.8,0,0,0,12.952,6.884l-.329,0" transform="translate(-1885.874 -814.455)" fill="#272253"/>
        <path id="Trazado_117660" data-name="Trazado 117660" d="M2408.959,1171.154c-1.451-9.574-2.652-20.935-3.313-32.79-.1-1.813-.194-3.677-.276-5.542-.091-2.057-.17-4.141-.235-6.193a9.414,9.414,0,0,1,.358-2.308,9,9,0,0,0,.339-2.1c-.193-7.8-.033-14.949.107-21.253q.056-2.481.1-4.859c.264-14.335.364-22.458.36-22.538,0,.08.361,8.162.1,22.517q-.045,2.382-.1,4.861c-.141,6.3-.3,13.438-.106,21.228a9.443,9.443,0,0,1-.355,2.241,9.029,9.029,0,0,0-.344,2.162c.066,2.05.145,4.131.235,6.187.083,1.863.175,3.726.276,5.536.66,11.838,1.54,23.3,2.989,32.858Z" transform="translate(-1929.277 -861.165)" fill="#2f2c60"/>
        <path id="Trazado_117661" data-name="Trazado 117661" d="M2203.2,694.757c.064,1.9.745,3.248,2.643,3.222,0,0,13.684.454,18.192.391,4.974-.07,19.738-.923,19.738-.923l.815-.011a2.638,2.638,0,0,0,2.488-3.4c-1.438-4.773-3.543-14.031-2.019-23.753a112.76,112.76,0,0,0,1.418-23.483c-.594-10.509-3.124-17.826-6.719-20.755a64.051,64.051,0,0,0-10.4-2.736c-1.361,2.121-3.747,4.633-7.412,4.631a7.271,7.271,0,0,1-6.777-4.777c-4.464.185-9.534,1.759-11.233,2.8-3.5,2.141-3.6,24.233-1.63,48.692.649,8.066.766,16.217.9,20.1" transform="translate(-1765.546 -499.87)" fill="#e8e8e8"/>
        <g id="Grupo_141491" data-name="Grupo 141491" transform="translate(456.646 122.079)" opacity="0.2">
          <g id="Grupo_141490" data-name="Grupo 141490">
            <g id="Grupo_141489" data-name="Grupo 141489" clip-path="url(#clip-path-6)">
              <path id="Trazado_117662" data-name="Trazado 117662" d="M2315.5,617.034s-3.47,4.989-7.46,5.268l3.927,5.8s8.773-4.135,8.234-8.584c0,0-3.421-2.388-4.7-2.481" transform="translate(-2308.042 -617.033)" fill="#cd832c"/>
            </g>
          </g>
        </g>
        <path id="Trazado_117663" data-name="Trazado 117663" d="M2198.985,876.693l-1.4-.6a9.541,9.541,0,0,1-11.624,3.027s-2.97-1.476-1.05-3.029,1.415-.717,4.071-2.958,6.147-3.224,8.445-2.26l2.547,1.087Z" transform="translate(-1752.112 -698.275)" fill="#daa9ae"/>
        <g id="Grupo_141494" data-name="Grupo 141494" transform="translate(445.671 121.972)" opacity="0.2">
          <g id="Grupo_141493" data-name="Grupo 141493">
            <g id="Grupo_141492" data-name="Grupo 141492" clip-path="url(#clip-path-7)">
              <path id="Trazado_117664" data-name="Trazado 117664" d="M2257.8,616.487s2.356,5.641,6.029,5.348l-3.7,5.826s-7.331-4.422-7.551-8.6c0,0,3.947-2.482,5.227-2.576" transform="translate(-2252.57 -616.488)" fill="#cd832c"/>
            </g>
          </g>
        </g>
        <path id="Trazado_117665" data-name="Trazado 117665" d="M2299.684,644.25h-5.3a.78.78,0,0,0-.427,1.026c.213.812,2.178,2.863,2.84,2.906s4.467-2.564,2.885-3.932" transform="translate(-1840.064 -516.785)" fill="#f4a338"/>
        <path id="Trazado_117666" data-name="Trazado 117666" d="M2257.307,613.263s1.809,5.735,5.8,6.014l-3.8,5.081s-7.06-4.344-7.281-8.52c0,0,4-2.482,5.284-2.576" transform="translate(-1806.46 -491.929)" fill="#e0dfdf"/>
        <path id="Trazado_117667" data-name="Trazado 117667" d="M2315.649,613.655s-3.616,5.657-7.606,5.937l3.785,5.192s8.156-3.8,8.376-7.978c0,0-3.274-3.056-4.554-3.15" transform="translate(-1851.397 -492.243)" fill="#e0dfdf"/>
        <path id="Trazado_117668" data-name="Trazado 117668" d="M2275.863,661.129s-1.7,12.812-1.7,16.468c0,15.376,2.391,39.257,2.391,39.257a6.762,6.762,0,0,1-1.7,4.789,28.157,28.157,0,0,1-3.941,3.494,13.59,13.59,0,0,1-3.662-6.766c-.647-2.908-1.519-20.893,2.057-40.13a148.312,148.312,0,0,1,4.686-17.393s1.447-.194,1.87.28" transform="translate(-1818.203 -530.068)" fill="#f4a338"/>
        <g id="Grupo_141497" data-name="Grupo 141497" transform="translate(461.691 142.985)" opacity="0.2">
          <g id="Grupo_141496" data-name="Grupo 141496">
            <g id="Grupo_141495" data-name="Grupo 141495" clip-path="url(#clip-path-8)">
              <path id="Trazado_117669" data-name="Trazado 117669" d="M2338.12,767.656a20.855,20.855,0,0,0,11.958,9.63l.816-.011a2.638,2.638,0,0,0,2.487-3.4c-1.438-4.773-3.543-14.031-2.019-23.753a112.827,112.827,0,0,0,1.418-23.483c-4.479-2.949-11.282-6.219-14.66-1.751-5.295,7-6.867,30.75,0,42.768" transform="translate(-2333.54 -722.695)" fill="#c4bfbf"/>
            </g>
          </g>
        </g>
        <path id="Trazado_117670" data-name="Trazado 117670" d="M2273.84,629.576a44.6,44.6,0,0,1,10.1,2.208c4.293,1.662,10.615,40.784,7.853,46.119-2.608,5.035-41.547,6.126-41.547,6.126l.461-5.709s23.583-5.583,30.874-8.094Z" transform="translate(-1805.033 -505.014)" fill="#e8e8e8"/>
        <path id="Trazado_117671" data-name="Trazado 117671" d="M2117.253,768.618h-34.165l7.074,24.895h33.877Z" transform="translate(-1670.95 -616.547)" fill="#2f2c60"/>
        <path id="Trazado_117672" data-name="Trazado 117672" d="M2114.6,768.618h-34.165l7.074,24.895h33.876Z" transform="translate(-1668.823 -616.547)" fill="#12263f"/>
        <rect id="Rectángulo_36971" data-name="Rectángulo 36971" width="44.05" height="0.859" transform="translate(418.688 176.966)" fill="#2f2c60"/>
        <path id="Trazado_117673" data-name="Trazado 117673" d="M2170.89,824.523a2.643,2.643,0,0,0-1.934-2.417,1.462,1.462,0,0,0-1.935,1.452,2.643,2.643,0,0,0,1.935,2.417,1.462,1.462,0,0,0,1.934-1.452" transform="translate(-1738.276 -659.404)" fill="#cfd4ec"/>
        <path id="Trazado_117674" data-name="Trazado 117674" d="M1356.112,1293.026v-65.974a2.321,2.321,0,0,0-2.315-2.315h-5.839a2.321,2.321,0,0,0-2.314,2.315v65.974a27.281,27.281,0,0,0-20.836,18.819h52.138a27.28,27.28,0,0,0-20.835-18.819" transform="translate(-1062.695 -982.424)" fill="#12263f"/>
        <path id="Trazado_117675" data-name="Trazado 117675" d="M754.746,788.582s.5-8.79-10.854-8.273-12.61,10.858-11.725,15.124,5.15,7.756,8.253,7.562a26.588,26.588,0,0,0,6.108-1.228Z" transform="translate(-587.124 -625.907)" fill="#373f51"/>
        <path id="Trazado_117676" data-name="Trazado 117676" d="M972.49,1138.518a6.909,6.909,0,0,0-8.647-.943l-14.856-4.794-3.037,5.171,16.658,3.2c1.307,1.244,3.923,1.477,6.3.644s1.818-.4,3.516-.954.068-2.32.068-2.32" transform="translate(-758.794 -908.66)" fill="#dfbd9f"/>
        <path id="Trazado_117677" data-name="Trazado 117677" d="M674.6,1146.424c0,.029-.007.058-.012.087a31.816,31.816,0,0,1-3.77,11.542c-3.729,6.287-10.8,13.286-27.758,15.573-.821.109-1.669.21-2.539.3q-2.373.243-4.992.362c-.222.01-.445.019-.669.024a82.19,82.19,0,0,1-16.607-2.487c-12.634-3-20.865-9.169-26.07-16.672a0,0,0,0,1,0,0,40.685,40.685,0,0,1-3.971-7.212,55.207,55.207,0,0,1-4.1-20.783,68.615,68.615,0,0,1,2.2-16.3,29.633,29.633,0,0,1,4.016-8.941,24.312,24.312,0,0,1,1.536-2.041,22.755,22.755,0,0,1,6.231-5.248c6.036-3.439,25.887-6.867,42.7,2.007,30.951,16.329,35.61,36.5,33.811,49.8" transform="translate(-468.545 -875.139)" fill="#373f51"/>
        <path id="Trazado_117678" data-name="Trazado 117678" d="M733.038,1487.907H708.414V1450.3h-6.885v37.611H675.916a2.423,2.423,0,1,0,0,4.846h57.122a2.423,2.423,0,0,0,0-4.846" transform="translate(-540.242 -1163.355)" fill="#373f51"/>
        <path id="Trazado_117679" data-name="Trazado 117679" d="M695.165,1355.849a31.838,31.838,0,0,1-3.771,11.543c-3.729,6.287-10.8,13.285-27.758,15.573q-1.154.155-2.374.281l-.018,0c-.047.006-.1.012-.146.016q-2.374.24-4.992.362c-.224.01-.445.018-.669.024a82.253,82.253,0,0,1-16.608-2.487c-.257-.061-.514-.122-.768-.188-.16-.04-.319-.079-.477-.123-.136-.034-.269-.069-.4-.1q-.623-.166-1.233-.344l-.31-.091c-.182-.054-.362-.109-.54-.164-.241-.074-.479-.149-.714-.226s-.471-.154-.7-.233c-.263-.089-.522-.18-.781-.271l-.473-.172c-.429-.159-.851-.321-1.268-.487-.109-.042-.218-.087-.326-.131l-.475-.2c-.02-.01-.04-.018-.059-.026-.208-.087-.415-.177-.619-.265q-.335-.148-.665-.3c-.186-.083-.37-.168-.552-.258l-.065-.03q-.294-.14-.582-.281c-.172-.083-.34-.168-.508-.253-.042-.022-.083-.044-.125-.064-.17-.087-.338-.176-.506-.263-.239-.129-.479-.257-.716-.388-.166-.091-.331-.184-.493-.277-.19-.107-.376-.216-.562-.327s-.372-.22-.554-.332-.352-.216-.526-.327l-.41-.263c-.1-.061-.2-.127-.291-.19l-.376-.251q-.261-.178-.516-.356-.513-.359-1.007-.73c-.164-.121-.325-.246-.485-.368-.141-.107-.277-.216-.413-.323-.341-.273-.673-.546-1-.823-.14-.119-.279-.239-.417-.36-.115-.1-.228-.2-.34-.3s-.226-.2-.336-.307-.221-.2-.332-.309-.224-.211-.334-.319c-.141-.135-.281-.271-.418-.409-.115-.115-.229-.23-.342-.344q-.564-.576-1.094-1.17c-.091-.1-.178-.2-.265-.3l-.041-.047c-.162-.184-.321-.368-.477-.554-.218-.257-.431-.518-.639-.779-.085-.107-.17-.214-.253-.32-.22-.281-.433-.562-.643-.847-.1-.141-.206-.283-.309-.426s-.22-.308-.327-.463a40.713,40.713,0,0,1-3-5.9,157.146,157.146,0,0,1,37.325-6.521c.279-.012.56-.024.839-.033a105.93,105.93,0,0,1,13.972.389c11.406,1.114,23.253,2.353,33.27,3.423" transform="translate(-489.118 -1084.477)" fill="#373f51"/>
        <path id="Trazado_117680" data-name="Trazado 117680" d="M822.345,913.449l-14.516-1.284a65.791,65.791,0,0,0,1-14.568l10.413,3.169s-1.385,8.053,3.1,12.682" transform="translate(-648 -720.008)" fill="#dfbd9f"/>
        <path id="Trazado_117681" data-name="Trazado 117681" d="M820.9,851.492s-12.508,2.284-13.81-5.528-3.794-12.777,4.137-14.565,9.983.933,11.052,3.435,1.841,15.863-1.379,16.658" transform="translate(-646.271 -666.445)" fill="#e2b48c"/>
        <path id="Trazado_117682" data-name="Trazado 117682" d="M1224.125,1584.066l7.1,7.238,4.26-3.034-6.117-13.642Z" transform="translate(-981.932 -1263.088)" fill="#deadb2"/>
        <path id="Trazado_117683" data-name="Trazado 117683" d="M784.326,1264.005c-.745,1.559-10.565,19.227,5.737,23.937s57.154.722,57.154.722.882,13.863,5.494,20.359c7.407,10.431,26.256,29.733,26.256,29.733l3.443-.109s-22.856-60.509-28.169-64.373c-3.886-2.826-23.438-7.828-34.247-9.505-2.633-.408-18.567-.892-22.832-1.059-6.684-.263-12.421-.568-12.835.3" transform="translate(-626.252 -1013.464)" fill="#ddc4ad"/>
        <path id="Trazado_117684" data-name="Trazado 117684" d="M1265.38,1636.32l1.633,5.4h16.206s-4.146-7.286-17.839-5.4" transform="translate(-1015.025 -1312.325)" fill="#36b4ab"/>
        <path id="Trazado_117685" data-name="Trazado 117685" d="M751.659,1264.005c-.745,1.559-10.565,19.227,5.737,23.937s54.407,2.66,54.407,2.66,3.628,11.925,8.241,18.42c7.407,10.431,26.256,29.733,26.256,29.733l7.3-.109s-26.718-60.509-32.031-64.373c-3.886-2.826-23.438-7.828-34.247-9.505-2.633-.408-18.568-.892-22.833-1.059-6.684-.263-12.421-.568-12.834.3" transform="translate(-600.048 -1013.464)" fill="#ddc4ad"/>
        <path id="Trazado_117686" data-name="Trazado 117686" d="M817,1263.885a59.206,59.206,0,0,0-6.281.095c-6.059.207-12.3,18.383-12.3,18.383-5.272.834-42.1-.774-56.7-5.1-3.482-1.032-5.7-2.218-5.926-3.562-.361-2.164.163-5.138,1.059-8.212a91.175,91.175,0,0,1,5.815-14.181,22.65,22.65,0,0,0,7.294,1.654,117.934,117.934,0,0,0,17.36-.006c17.183-2.019,48.989,10.194,49.679,10.928" transform="translate(-590.123 -1003.738)" fill="#4adbd1"/>
        <path id="Trazado_117687" data-name="Trazado 117687" d="M896.123,999.771l-.861,3.263-.37,1.4s-12.5-1.274-12.782-3.089c-.143-.911-2.43-8.136-4.667-15.095-2.214-6.887-4.382-13.515-4.382-13.515l-1.148-8.4s7.558,1.421,8.32,2.387c1.836,2.327,7.514,29.327,7.514,29.327.568.184,8.376,3.719,8.376,3.719" transform="translate(-699.405 -773.544)" fill="#4adbd1"/>
        <g id="Grupo_141500" data-name="Grupo 141500" transform="translate(177.512 201.616)" opacity="0.2">
          <g id="Grupo_141499" data-name="Grupo 141499">
            <g id="Grupo_141498" data-name="Grupo 141498" clip-path="url(#clip-path-9)">
              <path id="Trazado_117688" data-name="Trazado 117688" d="M915.552,1046.907l-.37,1.4s-12.5-1.274-12.782-3.089c-.143-.911-2.429-8.136-4.667-15.095l-.526-11.091s6.488,12.268,8.066,19.971c0,0-.238,3.651,1.578,4.233,1.293.415,6.067,2.505,8.7,3.67" transform="translate(-897.207 -1019.033)" fill="#373484"/>
            </g>
          </g>
        </g>
        <path id="Trazado_117689" data-name="Trazado 117689" d="M786.723,1013.188a37.8,37.8,0,0,0,3.032,8.854l-.1.012-31.951,4.13s.619-1.565,1.421-4.006c1.643-5,4.061-13.664,3.537-20.1-.237-2.885-.341-9.156-.847-16.613-.365-5.4-.94-11.419-1.927-17.224,0,0,4.47-3.127,7.9-3.931,5.714-1.342,12.593-.375,20.833,1.9,0,0,7.238,26.5-1.681,43.951a5.3,5.3,0,0,0-.221,3.023Z" transform="translate(-607.797 -773.032)" fill="#4adbd1"/>
        <path id="Trazado_117690" data-name="Trazado 117690" d="M793.293,821.894s-3.018-1.1-4.934.776.134,4.2.134,4.2Z" transform="translate(-631.726 -659.026)" fill="#4adbd1"/>
        <path id="Trazado_117691" data-name="Trazado 117691" d="M795.868,836.67s4.976-1.074,4.782-6.116,4.973-6.874,9.806-6.2c0,0-.014-6.209-12.618-4.949s-1.971,17.265-1.971,17.265" transform="translate(-635.043 -657.15)" fill="#373f51"/>
        <path id="Trazado_117692" data-name="Trazado 117692" d="M808.668,961.97s4.5,6.41,10.9,6.215c0,0,2.8-4.869,1.618-6.7s-12.513.485-12.513.485" transform="translate(-648.673 -770.69)" fill="#dfbd9f"/>
        <path id="Trazado_117693" data-name="Trazado 117693" d="M1085.665,1052.03h40.865l-8.461,29.777h-40.521Z" transform="translate(-864.356 -843.886)" fill="#373481"/>
        <path id="Trazado_117694" data-name="Trazado 117694" d="M1088.837,1052.03H1129.7l-8.461,29.777h-40.52Z" transform="translate(-866.9 -843.886)" fill="url(#linear-gradient)"/>
        <rect id="Rectángulo_36973" data-name="Rectángulo 36973" width="52.689" height="1.027" transform="translate(201.652 237.921)" fill="#373f51"/>
        <path id="Trazado_117695" data-name="Trazado 117695" d="M1201.334,1118.9a3.16,3.16,0,0,1,2.314-2.891,1.748,1.748,0,0,1,2.314,1.737,3.161,3.161,0,0,1-2.314,2.891,1.748,1.748,0,0,1-2.314-1.737" transform="translate(-963.65 -895.149)" fill="#373f51"/>
        <g id="Grupo_141503" data-name="Grupo 141503" transform="translate(169.105 240.157)" opacity="0.2">
          <g id="Grupo_141502" data-name="Grupo 141502">
            <g id="Grupo_141501" data-name="Grupo 141501" clip-path="url(#clip-path-10)">
              <path id="Trazado_117696" data-name="Trazado 117696" d="M867.566,1222.685l-.1.012c-3.531-.1-9.584-.178-12.758.388.291-.114,9.6-3.8,9.821-9.253a37.808,37.808,0,0,0,3.033,8.853" transform="translate(-854.713 -1213.832)" fill="#373484"/>
            </g>
          </g>
        </g>
        <g id="Grupo_141506" data-name="Grupo 141506" transform="translate(146.727 212.484)" opacity="0.2">
          <g id="Grupo_141505" data-name="Grupo 141505">
            <g id="Grupo_141504" data-name="Grupo 141504" clip-path="url(#clip-path-11)">
              <path id="Trazado_117697" data-name="Trazado 117697" d="M754.711,1125.869c-3.271-1.811-1.636-9.226.008-15.116,3.1-5.77,14.905-23.36,16.3-24.605,1.565-1.4,0-1.986,0-1.986-10.038-.629-15.688-10.2-15.688-10.2l-2.787,2.063.069.2a28.566,28.566,0,0,0-3.7-2.261c.506,7.457.611,13.728.847,16.613.509,6.263-1.768,14.641-3.4,19.691a114.925,114.925,0,0,0-4.74,13.014l1.332,2.782,3.535,8.991c14.6,4.326,51.431,5.933,56.7,5.1-3.75-11.506-43.563-11.57-48.469-14.285" transform="translate(-741.609 -1073.963)" fill="#373484"/>
            </g>
          </g>
        </g>
        <path id="Trazado_117698" data-name="Trazado 117698" d="M932.013,1165.4a6.909,6.909,0,0,0-8.647-.943l-14.856-4.794-3.038,5.171,16.658,3.2c1.307,1.244,3.923,1.477,6.3.644s1.818-.4,3.516-.954.069-2.32.069-2.32" transform="translate(-726.325 -930.227)" fill="#dfbd9f"/>
        <path id="Trazado_117699" data-name="Trazado 117699" d="M763.536,966.793s-9.544,2.161-11.1,6.943c-.72,2.22,9.436,30.506,12.927,32.575s19.749,5.048,19.749,5.048l.955-6.405s-11.009-4.807-11.914-6.249-10.621-31.911-10.621-31.911" transform="translate(-603.542 -775.513)" fill="#4adbd1"/>
        <path id="Trazado_117700" data-name="Trazado 117700" d="M902.225,1156.162l-1.935-.864-3.083,6.8,4.043.848Z" transform="translate(-719.695 -926.722)" fill="#f4a338"/>
        <path id="Trazado_117701" data-name="Trazado 117701" d="M977.465,1139.871l-1.943-.877-2.2,5.279,2.916.262Z" transform="translate(-780.747 -913.644)" fill="#f4a338"/>
        <path id="Trazado_117702" data-name="Trazado 117702" d="M643.06,1209.614c-.283.038-.568.075-.857.109q-.632.08-1.282.147c-.079.01-.156.018-.235.026l-.018,0c-1.118.158-2.612.329-3.63.374q-.689.033-1.389.04-.1,0-.2,0l-.592-.012a82.242,82.242,0,0,1-16.607-2.487c-.257-.061-.514-.123-.768-.188-.16-.039-.319-.079-.477-.123-.137-.034-.269-.069-.4-.1q-.623-.166-1.232-.344l-.311-.091q-.273-.08-.54-.164c-.241-.073-.479-.148-.714-.225s-.471-.154-.7-.233c-.263-.089-.522-.18-.781-.271l-.473-.172c-.429-.158-.851-.32-1.268-.486-.109-.042-.218-.087-.326-.131l-.475-.2c-.02-.01-.04-.018-.059-.026-.208-.087-.415-.176-.619-.265-.223-.1-.445-.2-.665-.3-.186-.083-.37-.168-.552-.257l-.065-.03c-.2-.093-.39-.186-.582-.281-.172-.083-.34-.168-.508-.254-.042-.022-.083-.043-.125-.063-.17-.087-.338-.176-.506-.263q-.359-.193-.716-.388c-.166-.091-.331-.184-.493-.277-.19-.107-.376-.216-.562-.326s-.372-.22-.554-.333-.352-.216-.526-.326l-.409-.263c-.1-.061-.2-.127-.291-.19l-.376-.251q-.261-.178-.516-.356-.513-.359-1.007-.73c-.164-.121-.325-.245-.485-.368-.141-.107-.277-.216-.414-.322-.34-.273-.673-.546-1-.823-.14-.119-.279-.24-.417-.36-.115-.1-.227-.2-.34-.3s-.225-.2-.336-.307-.222-.2-.332-.308-.224-.212-.334-.319c-.141-.135-.281-.271-.418-.41-.115-.115-.229-.229-.342-.344q-.564-.576-1.094-1.17c-.091-.1-.178-.2-.265-.3l-.042-.047c-.162-.184-.32-.368-.477-.554-.218-.257-.431-.518-.639-.779-.085-.107-.17-.214-.253-.32-.22-.281-.433-.562-.643-.847-.1-.14-.206-.283-.309-.426s-.22-.309-.326-.463a40.665,40.665,0,0,1-3.971-7.214,55.226,55.226,0,0,1-4.1-20.782,68.633,68.633,0,0,1,2.2-16.3,29.593,29.593,0,0,1,4.016-8.941c.358-.532.736-1.05,1.14-1.553.129-.164.261-.327.4-.489,7.087,7.411,23.1,24.889,35.49,42.831,7.489,10.846,13.652,21.862,15.713,30.928" transform="translate(-468.543 -911.127)" fill="#fff"/>
        <path id="Trazado_117703" data-name="Trazado 117703" d="M642.2,1211.7q-.632.08-1.282.146c-.077.006-.156.014-.235.026l-.018,0c-1.118.158-2.612.328-3.63.374q-.689.032-1.389.039-.1,0-.2,0l-.592-.012a82.235,82.235,0,0,1-16.607-2.487c-.257-.061-.514-.123-.768-.188-.16-.04-.319-.079-.477-.123-.137-.034-.269-.069-.4-.1q-.623-.166-1.232-.344c-.1-.03-.208-.061-.311-.091q-.273-.081-.54-.165c-.241-.073-.479-.148-.714-.225s-.471-.154-.7-.233c-.263-.089-.522-.18-.781-.271l-.473-.172c-.429-.158-.851-.32-1.268-.486-.109-.042-.218-.087-.326-.131l-.475-.2c-.02-.01-.04-.018-.059-.026-.208-.087-.415-.176-.619-.265q-.335-.148-.665-.3c-.186-.083-.37-.168-.552-.257l-.065-.03q-.294-.139-.582-.281c-.172-.083-.34-.168-.508-.253-.042-.022-.083-.044-.125-.063-.17-.087-.338-.176-.506-.263q-.359-.193-.716-.388c-.166-.091-.331-.184-.493-.277-.19-.107-.376-.215-.562-.326s-.372-.219-.554-.333-.352-.215-.526-.326l-.409-.263c-.1-.061-.2-.127-.291-.19l-.376-.251q-.261-.178-.516-.356-.513-.36-1.007-.73c-.164-.121-.325-.245-.485-.368-.141-.107-.277-.216-.414-.323-.34-.273-.673-.546-1-.823-.14-.119-.279-.239-.417-.36-.115-.1-.227-.2-.34-.3s-.225-.2-.336-.307-.222-.2-.332-.309-.224-.211-.334-.318c-.141-.135-.281-.271-.418-.41-.115-.115-.229-.23-.342-.344q-.564-.576-1.094-1.17c-.091-.1-.178-.2-.265-.3l-.042-.047c-.162-.184-.32-.368-.477-.554-.218-.257-.431-.518-.639-.78-.085-.107-.17-.214-.253-.32-.22-.281-.433-.562-.643-.847-.1-.141-.206-.283-.309-.426s-.22-.309-.326-.463a40.664,40.664,0,0,1-3.971-7.214,55.227,55.227,0,0,1-4.1-20.782,68.634,68.634,0,0,1,2.2-16.3,29.6,29.6,0,0,1,4.016-8.941c.358-.532.736-1.051,1.14-1.553,7.307,7.674,22.921,24.8,35.047,42.376,7.479,10.836,13.636,21.947,15.7,31" transform="translate(-468.543 -913.108)" fill="#212a3c"/>
        <path id="Trazado_117704" data-name="Trazado 117704" d="M1236.474,1636.32l1.633,5.4h16.206s-4.146-7.286-17.839-5.4" transform="translate(-991.838 -1312.325)" fill="#4adbd1"/>
        <path id="Trazado_117705" data-name="Trazado 117705" d="M1165.466,1214.441H981.878a2.656,2.656,0,0,1-2.648-2.648v-1.445a2.656,2.656,0,0,1,2.648-2.648h183.587a2.656,2.656,0,0,1,2.648,2.648v1.445a2.656,2.656,0,0,1-2.648,2.648" transform="translate(-785.49 -968.756)" fill="#12263f"/>
      </g>
    </g>
  </g>
</svg>
