<svg xmlns="http://www.w3.org/2000/svg" xmlns:xlink="http://www.w3.org/1999/xlink" width="82" height="82" viewBox="0 0 82 82">
  <defs>
    <clipPath id="clip-path">
      <rect id="Rect치ngulo_37098" data-name="Rect치ngulo 37098" width="66.665" height="70.568" fill="none"/>
    </clipPath>
  </defs>
  <g id="Grupo_986101" data-name="Grupo 986101" transform="translate(733 7188)">
    <g id="Grupo_986095" data-name="Grupo 986095" transform="translate(-725 -7182)">
      <g id="Grupo_141640" data-name="Grupo 141640" transform="translate(0 0)" clip-path="url(#clip-path)">
        <path id="Trazado_183516" data-name="Trazado 183516" d="M61.8,24.352a4.735,4.735,0,0,0-6.635-.79L41.78,34.047a3.79,3.79,0,0,1-2.328.805l-9.59.009a2.363,2.363,0,1,1,0-4.727l8.036-.008a4.727,4.727,0,0,0-.009-9.454l-8.9.008-6.075.006-3.424,0-1.242,0a11.355,11.355,0,0,0-7,2.424L4.677,28.271A.945.945,0,0,0,4.519,29.6L17.27,45.729a.944.944,0,0,0,.734.359l15.427.129,4.264.036a11.333,11.333,0,0,0,7.132-2.445L61.023,31a4.735,4.735,0,0,0,.777-6.652" transform="translate(3.844 18.416)" fill="#173042"/>
        <path id="Trazado_183517" data-name="Trazado 183517" d="M4.653,50.945a.946.946,0,0,0-1.327-.155L.359,53.137A.943.943,0,0,0,.2,54.464L12.651,70.208a.947.947,0,0,0,1.329.155l2.967-2.345A.948.948,0,0,0,17.1,66.69ZM40.994,0A16.65,16.65,0,1,0,57.646,16.65,16.651,16.651,0,0,0,40.994,0m-.926,13.449,3.844,1.978a5.8,5.8,0,0,1,3.1,6.172,5.645,5.645,0,0,1-3.326,4.343v.512a2.363,2.363,0,1,1-4.727,0v-.363a6.963,6.963,0,0,1-4.211-3.84,2.363,2.363,0,1,1,4.334-1.883,2.278,2.278,0,0,0,2.284,1.356,1.006,1.006,0,0,0,.979-.872,1.131,1.131,0,0,0-.6-1.221L37.9,17.652a5.836,5.836,0,0,1-3.069-6.3A5.672,5.672,0,0,1,38.96,6.826V6.474a2.363,2.363,0,1,1,4.727,0v.868a6.933,6.933,0,0,1,3.371,3.479,2.364,2.364,0,0,1-4.336,1.887,2.27,2.27,0,0,0-2.286-1.359,1.016,1.016,0,0,0-.957.872,1.094,1.094,0,0,0,.588,1.229" transform="translate(0 0)" fill="#173042"/>
      </g>
    </g>
    <rect id="Rect치ngulo_344758" data-name="Rect치ngulo 344758" width="82" height="82" transform="translate(-733 -7188)" fill="none"/>
  </g>
</svg>
