<svg xmlns="http://www.w3.org/2000/svg" xmlns:xlink="http://www.w3.org/1999/xlink" width="123" height="123" viewBox="0 0 123 123">
  <defs>
    <clipPath id="clip-path">
      <rect id="Rectángulo_37104" data-name="Rectángulo 37104" width="84" height="46.693" fill="#12263f"/>
    </clipPath>
  </defs>
  <g id="Grupo_986016" data-name="Grupo 986016" transform="translate(-652.125 -8611)">
    <circle id="Elipse_4818" data-name="Elipse 4818" cx="61.5" cy="61.5" r="61.5" transform="translate(652.125 8611)" fill="#f4a338"/>
    <g id="Grupo_141653" data-name="Grupo 141653" transform="translate(671.625 8649.153)">
      <g id="Grupo_141652" data-name="Grupo 141652" transform="translate(0 0)" clip-path="url(#clip-path)">
        <path id="Trazado_183528" data-name="Trazado 183528" d="M81.846,0H2.154A2.155,2.155,0,0,0,0,2.154V32.308a2.155,2.155,0,0,0,2.154,2.154H81.846A2.155,2.155,0,0,0,84,32.308V2.154A2.155,2.155,0,0,0,81.846,0m-55.4,20.556L24.112,24.6l-4.872-3.69.618,4.939H15.551l.616-4.939L11.295,24.6,8.962,20.556,14.541,18.2,8.962,15.85l2.333-4.041,4.844,3.666-.588-4.706h4.308l-.59,4.706,4.844-3.666,2.333,4.041L20.866,18.2Zm24.3,0L48.41,24.6l-4.874-3.69.618,4.939H39.846l.618-4.939L35.592,24.6,33.26,20.556,38.838,18.2,33.26,15.85l2.333-4.041,4.842,3.666-.588-4.706h4.308l-.588,4.706L48.41,11.81l2.33,4.041L45.164,18.2Zm24.3,0L72.705,24.6l-4.872-3.69.618,4.939H64.144l.616-4.939L59.888,24.6l-2.333-4.041L63.134,18.2,57.555,15.85l2.333-4.041,4.844,3.666-.588-4.706h4.308l-.59,4.706,4.844-3.666,2.333,4.041L69.459,18.2Z" transform="translate(0 0)" fill="#12263f"/>
        <path id="Trazado_183529" data-name="Trazado 183529" d="M78.288,18.679H3.981a3.231,3.231,0,1,0,0,6.462H78.288a3.231,3.231,0,1,0,0-6.462" transform="translate(0.865 21.552)" fill="#12263f"/>
      </g>
    </g>
  </g>
</svg>
