<svg xmlns="http://www.w3.org/2000/svg" xmlns:xlink="http://www.w3.org/1999/xlink" width="123" height="123" viewBox="0 0 123 123">
  <defs>
    <clipPath id="clip-path">
      <rect id="Rectángulo_37103" data-name="Rectángulo 37103" width="83" height="75.959" fill="#12263f"/>
    </clipPath>
  </defs>
  <g id="Grupo_986015" data-name="Grupo 986015" transform="translate(-490.125 -8611)">
    <circle id="Elipse_4817" data-name="Elipse 4817" cx="61.5" cy="61.5" r="61.5" transform="translate(490.125 8611)" fill="#f4a338"/>
    <g id="Grupo_141651" data-name="Grupo 141651" transform="translate(511.125 8634.521)">
      <g id="Grupo_141650" data-name="Grupo 141650" transform="translate(0 0)" clip-path="url(#clip-path)">
        <path id="Trazado_183526" data-name="Trazado 183526" d="M41.5,22.12a6.823,6.823,0,1,0,6.823,6.823A6.831,6.831,0,0,0,41.5,22.12m40.149,3.6C75.288,19.441,59.71,6.2,41.5,6.2S7.712,19.441,1.351,25.715a4.53,4.53,0,0,0,0,6.454C7.712,38.444,23.29,51.684,41.5,51.684S75.288,38.444,81.649,32.169a4.53,4.53,0,0,0,0-6.454M41.5,42.588A13.645,13.645,0,1,1,55.145,28.942,13.644,13.644,0,0,1,41.5,42.588" transform="translate(0 7.9)" fill="#12263f"/>
        <path id="Trazado_183527" data-name="Trazado 183527" d="M18.707,0H7.793A6.753,6.753,0,0,0,1.048,6.745V17.659a3.411,3.411,0,1,0,6.823,0L7.793,6.823H18.707a3.411,3.411,0,1,0,0-6.823m0,69.136-10.837.075V58.3a3.411,3.411,0,0,0-6.823,0V69.211a6.755,6.755,0,0,0,6.745,6.748H18.707a3.411,3.411,0,0,0,0-6.823M70.259,0H59.345a3.411,3.411,0,0,0,0,6.823l10.839-.077V17.659a3.411,3.411,0,1,0,6.823,0V6.745A6.753,6.753,0,0,0,70.259,0M73.6,54.886A3.411,3.411,0,0,0,70.184,58.3l.075,10.839H59.345a3.411,3.411,0,0,0,0,6.823H70.259a6.755,6.755,0,0,0,6.748-6.748V58.3A3.411,3.411,0,0,0,73.6,54.886" transform="translate(1.335 0)" fill="#12263f"/>
      </g>
    </g>
  </g>
</svg>
