<svg xmlns="http://www.w3.org/2000/svg" width="44.76" height="44.765" viewBox="0 0 44.76 44.765">
  <g id="Grupo_985445" data-name="Grupo 985445" transform="translate(2013.974 8391.27)">
    <g id="LOV5LS.tif" transform="translate(-2739.836 -8533.232)">
      <g id="Grupo_161582" data-name="Grupo 161582" transform="translate(725.863 141.963)">
        <path id="Trazado_199665" data-name="Trazado 199665" d="M770.623,143.676v24.008a2.436,2.436,0,0,1-2.661,1.729c-3.275-.049-6.552-.016-9.828-.016h-.506c0,1.3-.008,2.55.006,3.8,0,.283-.051.43-.366.485-.449.078-.887.222-1.355.344l.864,1.471-3.874,3.891-1.488-.879c-.114.463-.238.866-.308,1.278-.063.369-.238.464-.6.455-1.108-.027-2.216-.01-3.245-.01.09,1.11.21,2.18.254,3.254s.011,2.164.011,3.246H725.868c0-1.218-.014-2.436,0-3.654a10.514,10.514,0,0,1,4.556-8.763,27.18,27.18,0,0,1,2.918-1.629c-.007-.006-.069-.067-.136-.121a5.737,5.737,0,0,1-.37-8.9.8.8,0,0,0,.25-.672q0-9.384,0-18.769a2.14,2.14,0,0,1,2.262-2.259q16.509,0,33.017,0a2.727,2.727,0,0,1,.623.065A2.294,2.294,0,0,1,770.623,143.676Zm-33.178,2.641v15.9a5.893,5.893,0,0,1,4.162,2.681c.076.116.332.159.5.16q11.84.011,23.681.007h.476V146.317Zm5.08,21.625h25.583c.844,0,1.058-.217,1.058-1.072q0-11.191,0-22.382c0-.854-.214-1.071-1.058-1.071H735.582c-.817,0-1.039.223-1.039,1.044q0,8.8,0,17.6v.481a5.338,5.338,0,0,1,.989-.256c.4-.025.436-.22.435-.552q-.013-8.167-.006-16.335v-.534H767.72v21.668H742.34Zm-1.509.018a4.321,4.321,0,1,0-4.35,4.316A4.357,4.357,0,0,0,741.016,167.961Zm-1.023,4.778c3.674,1.638,4.307,2.207,6.564,5.848a.392.392,0,0,0,.269.173c.99.012,1.979.008,2.987.008.131-.5.233-.987.389-1.452a.989.989,0,0,1,.373-.436.854.854,0,0,1,1.142.068c.17.143.393.222.573.356a.491.491,0,0,0,.79-.084c.286-.346.635-.639.948-.964s.775-.605.829-.959c.05-.324-.355-.722-.568-1.083a.923.923,0,0,1,.639-1.485l1.21-.3v-2.98h-2.986a5,5,0,0,1-1.965,5.517,4.7,4.7,0,0,1-5.308.352c-2.306-1.273-3.05-3.327-2.553-5.867-.948-.091-.953-.093-1.278.714A6.032,6.032,0,0,1,739.994,172.739Zm-8.663,2.79a9.117,9.117,0,0,0-2.626,2.805,11.329,11.329,0,0,0-1.339,6.644c0,.092.2.246.315.254.434.03.872-.009,1.306.019.366.024.462-.116.458-.467-.016-1.548-.007-3.1-.007-4.644V179.5h1.522v.559c0,1.578.01,3.156-.008,4.734,0,.362.112.465.466.46,1.217-.019,2.434-.006,3.651-.009.124,0,.247-.023.42-.041Zm12.6,3.968c.008.188.022.349.022.51,0,1.593.01,3.186-.006,4.779,0,.353.1.491.459.465a10.535,10.535,0,0,1,1.216,0c.306.014.445-.081.424-.407s0-.661,0-.992a10.747,10.747,0,0,0-.819-4.476,9.307,9.307,0,0,0-3.159-3.85l-4.163,9.689c.194.015.309.031.425.031,1.217,0,2.434-.011,3.651.008.357.006.467-.1.464-.462-.017-1.593-.007-3.186-.007-4.779V179.5Zm7.939-8.761c-.05-.249-.124-.585-.182-.924-.054-.319-.211-.426-.548-.423-1.939.018-3.879.015-5.818,0a.435.435,0,0,0-.509.36,3.463,3.463,0,0,0,1.014,3.739,3.38,3.38,0,0,0,3.889.625A3.613,3.613,0,0,0,751.869,170.736Zm-11.6,3.73c-.7,1.931-1.9,2.884-3.593,2.88-1.665,0-2.877-.982-3.552-2.886l-.494.231,4.067,9.457,4.067-9.46Zm-3.561-.764c-.593.074-1.187.153-1.783.22-.279.031-.348.167-.281.428a2.137,2.137,0,0,0,4.106-.011c.057-.232.015-.379-.249-.411C737.906,173.855,737.312,173.778,736.707,173.7Z" transform="translate(-725.863 -141.963)" fill="#12263f"/>
        <path id="Trazado_199666" data-name="Trazado 199666" d="M1102.079,479.149h-8.6v-1.387h8.6Z" transform="translate(-1060.242 -447.401)" fill="#12263f"/>
        <path id="Trazado_199667" data-name="Trazado 199667" d="M1093.411,510.968v-1.384h8.617v1.384Z" transform="translate(-1060.179 -476.346)" fill="#12263f"/>
        <path id="Trazado_199668" data-name="Trazado 199668" d="M1110.909,542.993h-1.368v-1.4h1.368Z" transform="translate(-1074.851 -505.46)" fill="#12263f"/>
        <path id="Trazado_199669" data-name="Trazado 199669" d="M1142.753,543.045h-1.383V541.66h1.383Z" transform="translate(-1103.802 -505.522)" fill="#12263f"/>
        <path id="Trazado_199670" data-name="Trazado 199670" d="M1173.253,542.993v-1.385h1.393v1.385Z" transform="translate(-1132.802 -505.474)" fill="#12263f"/>
        <path id="Trazado_199671" data-name="Trazado 199671" d="M890.794,213.3v1.436H895.8v7.218H884.322v-7.182h4.989v-1.436h-5.018v-2.885h-2.879v2.837H869.87v-7.161h11.521v2.831h2.879v-2.838h11.543v7.18Zm-5.025-5.731v4.261h8.582v-4.261Zm-.008,12.918h8.582v-4.236h-8.582Zm-5.843-12.913h-8.591v4.261h8.591Z" transform="translate(-856.85 -200.315)" fill="#12263f"/>
        <path id="Trazado_199672" data-name="Trazado 199672" d="M880.077,333.946v1.39H870.028v-1.39Z" transform="translate(-856.993 -316.588)" fill="#12263f"/>
        <path id="Trazado_199673" data-name="Trazado 199673" d="M916.315,365.813V367.2h-6.446v-1.388Z" transform="translate(-893.232 -345.574)" fill="#12263f"/>
        <path id="Trazado_199674" data-name="Trazado 199674" d="M903.346,303.426h-1.378v-1.4h1.378Z" transform="translate(-886.046 -287.551)" fill="#12263f"/>
        <path id="Trazado_199675" data-name="Trazado 199675" d="M935.211,301.938v1.386h-1.394v-1.386Z" transform="translate(-915.015 -287.474)" fill="#12263f"/>
        <path id="Trazado_199676" data-name="Trazado 199676" d="M965.815,301.847H967.2v1.4h-1.383Z" transform="translate(-944.12 -287.391)" fill="#12263f"/>
        <path id="Trazado_199677" data-name="Trazado 199677" d="M1067.179,237.966h-2.86v1.4h2.86Zm-4.342,1.415v-1.42h-1.41v1.42Z" transform="translate(-1031.086 -229.281)" fill="#12263f"/>
        <path id="Trazado_199678" data-name="Trazado 199678" d="M908.257,238h-6.473v1.4h6.473Z" transform="translate(-885.879 -229.314)" fill="#12263f"/>
        <path id="Trazado_199679" data-name="Trazado 199679" d="M1096.273,238.012v1.4h-2.861v-1.4Z" transform="translate(-1060.181 -229.328)" fill="#12263f"/>
        <path id="Trazado_199680" data-name="Trazado 199680" d="M1062.836,239.381h-1.41v-1.42h1.41Z" transform="translate(-1031.086 -229.281)" fill="#12263f"/>
        <path id="Trazado_199681" data-name="Trazado 199681" d="M1061.286,335.231v-1.4h5.751v1.4Z" transform="translate(-1030.959 -316.48)" fill="#12263f"/>
        <path id="Trazado_199682" data-name="Trazado 199682" d="M908.257,238v1.4h-6.473V238Z" transform="translate(-885.879 -229.314)" fill="#12263f"/>
      </g>
    </g>
  </g>
</svg>
