<svg xmlns="http://www.w3.org/2000/svg" width="65.979" height="81.001" viewBox="0 0 65.979 81.001">
  <g id="L5cMpF.tif" transform="translate(-1191.43 -1153.5)">
    <g id="Grupo_980516" data-name="Grupo 980516" transform="translate(1191.43 1153.5)">
      <path id="Trazado_654754" data-name="Trazado 654754" d="M1249.9,1234.5h-46.675a3.528,3.528,0,0,0-.427-.154,8.31,8.31,0,0,1-6.738-6.439,22.5,22.5,0,0,1-.278-4.238c-.026-.541,0-1.083,0-1.628-2.868.138-4.429-1.5-4.348-4.519.125-4.661.031-9.329.034-13.994,0-2.082-.035-4.165.036-6.245a3.366,3.366,0,0,1,3.313-3.274c.3-.016.609,0,.965,0v-1.053q0-15.3,0-30.6a8.6,8.6,0,0,1,6.024-8.449c.469-.149.947-.271,1.42-.406h33.859a7.622,7.622,0,0,0,.567.716q9.517,9.5,19.053,18.973a2.108,2.108,0,0,1,.7,1.643q-.029,25.148-.016,50.295c0,.4-.006.791-.026,1.186a8.447,8.447,0,0,1-3.317,6.38A10.526,10.526,0,0,1,1249.9,1234.5ZM1201.04,1194h40.713c2.848,0,4.172,1.316,4.173,4.146,0,6.565-.051,13.13.026,19.694a3.843,3.843,0,0,1-4.169,4.2c-13.236-.065-26.473-.03-39.709-.03h-1.034c0,1.156,0,2.182,0,3.207,0,2.73,1.287,4.014,4.025,4.014q21.516,0,43.032,0c2.76,0,4.029-1.261,4.022-4q-.064-24.163-.13-48.326c0-.281,0-.563,0-.923h-1.025c-3.559-.007-7.12.061-10.676-.047a5.658,5.658,0,0,1-5.24-5.235c-.122-3.66-.072-7.326-.1-10.99,0-.3-.033-.607-.054-.97h-.86q-14.515.015-29.03.031c-2.677,0-3.962,1.3-3.963,3.995q0,15.146,0,30.293Zm12.178,21.7c2.006,0,3.939.16,5.835-.032,4.562-.461,6.874-2.984,7.02-7.4.117-3.528-1.619-6.023-4.934-6.878a20.6,20.6,0,0,0-7.922-.091Zm-9.357-5.091a33.819,33.819,0,0,0,3.416-.374,4.474,4.474,0,0,0,3.756-4.526,4.158,4.158,0,0,0-3.238-4.381,18.7,18.7,0,0,0-7.179-.037v14.342h3.246Zm27.757-3.486v-3.339h5.528v-2.635h-8.839v14.475h3.291v-5.81h5.163v-2.691Z" transform="translate(-1191.43 -1153.5)"/>
      <path id="Trazado_654755" data-name="Trazado 654755" d="M1252.172,1221.9v-.937q0-15.147,0-30.293c0-2.691,1.286-3.991,3.963-3.995q14.515-.02,29.03-.031h.86c.021.363.052.666.054.97.028,3.664-.022,7.33.1,10.99a5.658,5.658,0,0,0,5.24,5.235c3.556.108,7.117.04,10.676.047h1.025c0,.36,0,.641,0,.923q.065,24.163.13,48.326c.007,2.736-1.262,4-4.022,4q-21.516,0-43.032,0c-2.738,0-4.023-1.284-4.025-4.014,0-1.026,0-2.051,0-3.207h1.034c13.236,0,26.473-.035,39.709.03a3.843,3.843,0,0,0,4.169-4.2c-.076-6.564-.025-13.129-.026-19.694,0-2.83-1.325-4.146-4.173-4.146h-40.713Z" transform="translate(-1242.562 -1181.399)" fill="#e2f4fa"/>
      <path id="Trazado_654756" data-name="Trazado 654756" d="M1329.15,1468.194v-14.4a20.6,20.6,0,0,1,7.921.091c3.315.856,5.05,3.35,4.934,6.878-.146,4.419-2.458,6.943-7.02,7.4C1333.089,1468.353,1331.156,1468.194,1329.15,1468.194Zm3.317-2.573a4.933,4.933,0,0,0,5.253-1.816,6.25,6.25,0,0,0-.066-6.163,4.932,4.932,0,0,0-5.187-1.431Z" transform="translate(-1307.362 -1405.995)" fill="#f7c482"/>
      <path id="Trazado_654757" data-name="Trazado 654757" d="M1252.734,1463.095v5.024h-3.246v-14.342a18.7,18.7,0,0,1,7.179.037,4.158,4.158,0,0,1,3.238,4.381,4.474,4.474,0,0,1-3.756,4.526A33.819,33.819,0,0,1,1252.734,1463.095Zm.042-6.94v4.234c1.38.123,2.709.237,3.568-1.1a2.24,2.24,0,0,0-.127-2.517A3.32,3.32,0,0,0,1252.776,1456.154Z" transform="translate(-1240.303 -1405.988)" fill="#f7c482"/>
      <path id="Trazado_654758" data-name="Trazado 654758" d="M1427.839,1460.649h5.143v2.691h-5.163v5.81h-3.291v-14.475h8.839v2.635h-5.528Z" transform="translate(-1387.651 -1407.028)" fill="#f7c482"/>
      <path id="Trazado_654759" data-name="Trazado 654759" d="M1350.117,1479.166v-9.409a4.932,4.932,0,0,1,5.187,1.431,6.25,6.25,0,0,1,.066,6.163A4.933,4.933,0,0,1,1350.117,1479.166Z" transform="translate(-1325.012 -1419.541)"/>
      <path id="Trazado_654760" data-name="Trazado 654760" d="M1270.268,1469.486a3.32,3.32,0,0,1,3.441.621,2.24,2.24,0,0,1,.127,2.517c-.859,1.333-2.189,1.219-3.568,1.1Z" transform="translate(-1257.795 -1419.32)"/>
    </g>
  </g>
</svg>
