<svg xmlns="http://www.w3.org/2000/svg" width="95.597" height="36.448" viewBox="0 0 95.597 36.448">
  <g id="Grupo_892597" data-name="Grupo 892597" transform="translate(0 36.448) rotate(-90)">
    <g id="Grupo_152551" data-name="Grupo 152551" transform="translate(0 95.597) rotate(-90)">
      <rect id="Rectángulo_45220" data-name="Rectángulo 45220" width="84.91" height="25.284" transform="translate(84.91 25.284) rotate(180)" fill="#e8e8e8"/>
      <g id="Grupo_152556" data-name="Grupo 152556" transform="translate(0 13.891)">
        <rect id="Rectángulo_45221" data-name="Rectángulo 45221" width="4.297" height="4.296" transform="translate(91.3 18.26)" fill="#5573c6"/>
        <rect id="Rectángulo_45222" data-name="Rectángulo 45222" width="4.296" height="4.296" transform="translate(82.17 18.26)" fill="#5573c6"/>
        <rect id="Rectángulo_45223" data-name="Rectángulo 45223" width="4.296" height="4.296" transform="translate(73.04 18.26)" fill="#5573c6"/>
        <rect id="Rectángulo_45224" data-name="Rectángulo 45224" width="4.296" height="4.296" transform="translate(63.91 18.26)" fill="#5573c6"/>
        <rect id="Rectángulo_45225" data-name="Rectángulo 45225" width="4.296" height="4.296" transform="translate(54.78 18.26)" fill="#5573c6"/>
        <rect id="Rectángulo_45226" data-name="Rectángulo 45226" width="4.296" height="4.296" transform="translate(45.65 18.26)" fill="#5573c6"/>
        <rect id="Rectángulo_45227" data-name="Rectángulo 45227" width="4.296" height="4.296" transform="translate(36.52 18.26)" fill="#5573c6"/>
        <rect id="Rectángulo_45228" data-name="Rectángulo 45228" width="4.296" height="4.296" transform="translate(27.39 18.26)" fill="#5573c6"/>
        <rect id="Rectángulo_45229" data-name="Rectángulo 45229" width="4.297" height="4.296" transform="translate(18.26 18.26)" fill="#5573c6"/>
        <rect id="Rectángulo_45230" data-name="Rectángulo 45230" width="4.296" height="4.296" transform="translate(9.13 18.26)" fill="#5573c6"/>
        <rect id="Rectángulo_45231" data-name="Rectángulo 45231" width="4.297" height="4.296" transform="translate(0 18.26)" fill="#5573c6"/>
        <rect id="Rectángulo_45232" data-name="Rectángulo 45232" width="4.297" height="4.297" transform="translate(91.3 9.13)" fill="#5573c6"/>
        <rect id="Rectángulo_45233" data-name="Rectángulo 45233" width="4.296" height="4.297" transform="translate(82.17 9.13)" fill="#5573c6"/>
        <rect id="Rectángulo_45234" data-name="Rectángulo 45234" width="4.296" height="4.297" transform="translate(73.04 9.13)" fill="#5573c6"/>
        <rect id="Rectángulo_45235" data-name="Rectángulo 45235" width="4.296" height="4.297" transform="translate(63.91 9.13)" fill="#5573c6"/>
        <rect id="Rectángulo_45236" data-name="Rectángulo 45236" width="4.296" height="4.297" transform="translate(54.78 9.13)" fill="#5573c6"/>
        <rect id="Rectángulo_45237" data-name="Rectángulo 45237" width="4.296" height="4.297" transform="translate(45.65 9.13)" fill="#5573c6"/>
        <rect id="Rectángulo_45238" data-name="Rectángulo 45238" width="4.296" height="4.297" transform="translate(36.52 9.13)" fill="#5573c6"/>
        <rect id="Rectángulo_45239" data-name="Rectángulo 45239" width="4.296" height="4.297" transform="translate(27.39 9.13)" fill="#5573c6"/>
        <rect id="Rectángulo_45240" data-name="Rectángulo 45240" width="4.297" height="4.297" transform="translate(18.26 9.13)" fill="#5573c6"/>
        <rect id="Rectángulo_45241" data-name="Rectángulo 45241" width="4.296" height="4.297" transform="translate(9.13 9.13)" fill="#5573c6"/>
        <rect id="Rectángulo_45242" data-name="Rectángulo 45242" width="4.297" height="4.297" transform="translate(0 9.13)" fill="#5573c6"/>
        <rect id="Rectángulo_45243" data-name="Rectángulo 45243" width="4.297" height="4.296" transform="translate(91.3)" fill="#5573c6"/>
        <rect id="Rectángulo_45244" data-name="Rectángulo 45244" width="4.296" height="4.296" transform="translate(82.17)" fill="#5573c6"/>
        <rect id="Rectángulo_45245" data-name="Rectángulo 45245" width="4.296" height="4.296" transform="translate(73.04)" fill="#5573c6"/>
        <rect id="Rectángulo_45246" data-name="Rectángulo 45246" width="4.296" height="4.296" transform="translate(63.91)" fill="#5573c6"/>
        <rect id="Rectángulo_45247" data-name="Rectángulo 45247" width="4.296" height="4.296" transform="translate(54.78)" fill="#5573c6"/>
        <rect id="Rectángulo_45248" data-name="Rectángulo 45248" width="4.296" height="4.296" transform="translate(45.65)" fill="#5573c6"/>
        <rect id="Rectángulo_45249" data-name="Rectángulo 45249" width="4.296" height="4.296" transform="translate(36.52)" fill="#5573c6"/>
        <rect id="Rectángulo_45250" data-name="Rectángulo 45250" width="4.296" height="4.296" transform="translate(27.39)" fill="#5573c6"/>
        <rect id="Rectángulo_45251" data-name="Rectángulo 45251" width="4.297" height="4.296" transform="translate(18.26)" fill="#5573c6"/>
        <rect id="Rectángulo_45252" data-name="Rectángulo 45252" width="4.296" height="4.296" transform="translate(9.13)" fill="#5573c6"/>
        <rect id="Rectángulo_45253" data-name="Rectángulo 45253" width="4.297" height="4.296" fill="#5573c6"/>
      </g>
    </g>
  </g>
</svg>
