<svg id="Grupo_985600" data-name="Grupo 985600" xmlns="http://www.w3.org/2000/svg" width="28.087" height="49.029" viewBox="0 0 28.087 49.029">
  <g id="Grupo_152551" data-name="Grupo 152551" transform="translate(0 70.07) rotate(-90)">
    <rect id="Rectángulo_45220" data-name="Rectángulo 45220" width="39.709" height="19.423" transform="translate(70.07 19.423) rotate(180)" fill="#e8e8e8"/>
    <g id="Grupo_152556" data-name="Grupo 152556" transform="translate(0 10.759)">
      <rect id="Rectángulo_45221" data-name="Rectángulo 45221" width="3.301" height="3.301" transform="translate(49.095 14.027)" fill="#5573c6"/>
      <rect id="Rectángulo_45222" data-name="Rectángulo 45222" width="3.301" height="3.301" transform="translate(42.082 14.027)" fill="#5573c6"/>
      <rect id="Rectángulo_45223" data-name="Rectángulo 45223" width="3.301" height="3.301" transform="translate(35.068 14.027)" fill="#5573c6"/>
      <rect id="Rectángulo_45224" data-name="Rectángulo 45224" width="3.3" height="3.301" transform="translate(28.055 14.027)" fill="#5573c6"/>
      <rect id="Rectángulo_45225" data-name="Rectángulo 45225" width="3.301" height="3.301" transform="translate(21.041 14.027)" fill="#5573c6"/>
      <rect id="Rectángulo_45232" data-name="Rectángulo 45232" width="3.301" height="3.301" transform="translate(49.095 7.014)" fill="#5573c6"/>
      <rect id="Rectángulo_45233" data-name="Rectángulo 45233" width="3.301" height="3.301" transform="translate(42.082 7.014)" fill="#5573c6"/>
      <rect id="Rectángulo_45234" data-name="Rectángulo 45234" width="3.301" height="3.301" transform="translate(35.068 7.014)" fill="#5573c6"/>
      <rect id="Rectángulo_45235" data-name="Rectángulo 45235" width="3.3" height="3.301" transform="translate(28.055 7.014)" fill="#5573c6"/>
      <rect id="Rectángulo_45236" data-name="Rectángulo 45236" width="3.301" height="3.301" transform="translate(21.041 7.014)" fill="#5573c6"/>
      <rect id="Rectángulo_45243" data-name="Rectángulo 45243" width="3.301" height="3.301" transform="translate(49.095)" fill="#5573c6"/>
      <rect id="Rectángulo_45244" data-name="Rectángulo 45244" width="3.301" height="3.301" transform="translate(42.082)" fill="#5573c6"/>
      <rect id="Rectángulo_45245" data-name="Rectángulo 45245" width="3.301" height="3.301" transform="translate(35.068)" fill="#5573c6"/>
      <rect id="Rectángulo_45246" data-name="Rectángulo 45246" width="3.3" height="3.301" transform="translate(28.055)" fill="#5573c6"/>
      <rect id="Rectángulo_45247" data-name="Rectángulo 45247" width="3.301" height="3.301" transform="translate(21.041)" fill="#5573c6"/>
    </g>
  </g>
</svg>
