<svg xmlns="http://www.w3.org/2000/svg" xmlns:xlink="http://www.w3.org/1999/xlink" width="82" height="82" viewBox="0 0 82 82">
  <defs>
    <clipPath id="clip-path">
      <rect id="Rect치ngulo_37102" data-name="Rect치ngulo 37102" width="53.672" height="59.547" fill="#12263f"/>
    </clipPath>
  </defs>
  <g id="Grupo_986104" data-name="Grupo 986104" transform="translate(374 7188)">
    <g id="Grupo_986098" data-name="Grupo 986098" transform="translate(-360 -7177)">
      <g id="Grupo_141648" data-name="Grupo 141648" transform="translate(0 0)" clip-path="url(#clip-path)">
        <path id="Trazado_183524" data-name="Trazado 183524" d="M49.412,17.468a4.233,4.233,0,0,0-.694.07A22.686,22.686,0,0,0,26.807,0,22.69,22.69,0,0,0,4.9,17.533a4.1,4.1,0,0,0-.636-.065A4.266,4.266,0,0,0,0,21.729v5.113A4.266,4.266,0,0,0,4.261,31.1a4.242,4.242,0,0,0,1.467-.276,8.521,8.521,0,0,0,7.906,5.389,1.7,1.7,0,1,0,0-3.408,5.119,5.119,0,0,1-5.113-5.113v-5.4A18.522,18.522,0,0,1,26.807,4.261,18.552,18.552,0,0,1,45.127,23c0,.043.022.077.024.119v3.725a4.261,4.261,0,1,0,8.521,0V21.729a4.266,4.266,0,0,0-4.261-4.261" transform="translate(0 0)" fill="#12263f"/>
        <path id="Trazado_183525" data-name="Trazado 183525" d="M40.233,37.608h-5a3.407,3.407,0,0,0-2.795,1.457l-3.5,5.005a3.409,3.409,0,0,1-5.614-.037L19.979,39.1a3.406,3.406,0,0,0-2.82-1.495H12.247A11.454,11.454,0,0,0,.793,49.062v5.084a1.7,1.7,0,0,0,1.7,1.7H49.981a1.7,1.7,0,0,0,1.7-1.7V49.062A11.453,11.453,0,0,0,40.233,37.608M26.247,33.347A14.049,14.049,0,1,0,12.2,19.3,14.05,14.05,0,0,0,26.247,33.347" transform="translate(0.558 3.697)" fill="#12263f"/>
      </g>
    </g>
    <rect id="Rect치ngulo_344761" data-name="Rect치ngulo 344761" width="82" height="82" transform="translate(-374 -7188)" fill="none"/>
  </g>
</svg>
