<svg xmlns="http://www.w3.org/2000/svg" xmlns:xlink="http://www.w3.org/1999/xlink" width="82" height="82" viewBox="0 0 82 82">
  <defs>
    <clipPath id="clip-path">
      <rect id="Rect치ngulo_37099" data-name="Rect치ngulo 37099" width="58.74" height="63.237" fill="#12263f"/>
    </clipPath>
  </defs>
  <g id="Grupo_986102" data-name="Grupo 986102" transform="translate(618 7188)">
    <g id="Grupo_986096" data-name="Grupo 986096" transform="translate(-606 -7179)">
      <g id="Grupo_141642" data-name="Grupo 141642" clip-path="url(#clip-path)">
        <path id="Trazado_183518" data-name="Trazado 183518" d="M53.349,34.679H5.517a2.517,2.517,0,1,0,0,5.035H53.349a2.517,2.517,0,1,0,0-5.035" transform="translate(2.035 23.523)" fill="#12263f"/>
        <path id="Trazado_183519" data-name="Trazado 183519" d="M55.384,0H6.713A3.356,3.356,0,0,0,3.357,3.357V6.8A4.2,4.2,0,0,0,0,10.909V19.3a4.2,4.2,0,0,0,3.357,4.11v8.561A4.2,4.2,0,0,0,0,36.083V42.8a4.2,4.2,0,0,0,3.357,4.11v3.442a3.357,3.357,0,0,0,3.357,3.357H55.384a3.358,3.358,0,0,0,3.357-3.357V3.357A3.357,3.357,0,0,0,55.384,0M17.2,27.22v8.863a2.1,2.1,0,1,1-4.2,0V27.22a5.035,5.035,0,1,1,4.2,0m33.984,1.73H48.422a9.138,9.138,0,0,1-1.15,2.768l1.957,1.955a2.1,2.1,0,0,1-2.967,2.967l-1.955-1.957a9.156,9.156,0,0,1-2.768,1.15V38.6a2.1,2.1,0,0,1-4.2,0V35.833a9.138,9.138,0,0,1-2.768-1.15l-1.957,1.957a2.1,2.1,0,0,1-2.966-2.967l1.955-1.955a9.2,9.2,0,0,1-1.148-2.768H27.7a2.1,2.1,0,0,1,0-4.2h2.762a9.177,9.177,0,0,1,1.148-2.768l-1.955-1.955a2.1,2.1,0,0,1,2.966-2.967l1.957,1.957a9.138,9.138,0,0,1,2.768-1.15V15.108a2.1,2.1,0,0,1,4.2,0v2.764a9.138,9.138,0,0,1,2.768,1.15l1.955-1.957a2.1,2.1,0,0,1,2.967,2.967l-1.957,1.955a9.138,9.138,0,0,1,1.15,2.768h2.764a2.1,2.1,0,0,1,0,4.2M39.442,22.659a4.194,4.194,0,1,0,4.194,4.194,4.194,4.194,0,0,0-4.194-4.194" fill="#12263f"/>
      </g>
    </g>
    <rect id="Rect치ngulo_344759" data-name="Rect치ngulo 344759" width="82" height="82" transform="translate(-618 -7188)" fill="none"/>
  </g>
</svg>
