<svg xmlns="http://www.w3.org/2000/svg" xmlns:xlink="http://www.w3.org/1999/xlink" width="82" height="82" viewBox="0 0 82 82">
  <defs>
    <clipPath id="clip-path">
      <rect id="Rect치ngulo_37100" data-name="Rect치ngulo 37100" width="52.925" height="67.194" fill="none"/>
    </clipPath>
  </defs>
  <g id="Grupo_986103" data-name="Grupo 986103" transform="translate(496 7188)">
    <g id="Grupo_986097" data-name="Grupo 986097" transform="translate(-481 -7181)">
      <g id="Grupo_141644" data-name="Grupo 141644" transform="translate(0 0)" clip-path="url(#clip-path)">
        <path id="Trazado_183520" data-name="Trazado 183520" d="M28,20.406A15.746,15.746,0,1,0,43.742,36.152,15.746,15.746,0,0,0,28,20.406m-.772,12.957,3.557,1.83a5.367,5.367,0,0,1,2.869,5.714,5.225,5.225,0,0,1-3.078,4.015V45.4a2.187,2.187,0,0,1-4.374,0v-.331a6.457,6.457,0,0,1-3.9-3.56,2.187,2.187,0,0,1,4.012-1.743,2.109,2.109,0,0,0,2.112,1.256.927.927,0,0,0,.906-.8,1.046,1.046,0,0,0-.551-1.132l-3.559-1.83a5.4,5.4,0,0,1-2.841-5.83A5.247,5.247,0,0,1,26.2,27.235v-.325a2.187,2.187,0,1,1,4.374,0v.81a6.4,6.4,0,0,1,3.118,3.212,2.188,2.188,0,1,1-4.012,1.746,2.106,2.106,0,0,0-2.113-1.258.939.939,0,0,0-.887.807,1.011,1.011,0,0,0,.546,1.137" transform="translate(9.182 15.295)" fill="#173042"/>
        <path id="Trazado_183521" data-name="Trazado 183521" d="M41.152,1.166,37.276,3.28a1.749,1.749,0,0,1-1.676,0L29.975.213a1.75,1.75,0,0,0-1.674,0L22.69,3.278a1.752,1.752,0,0,1-1.678,0L15.4.215a1.752,1.752,0,0,0-1.678,0L8.118,3.278a1.752,1.752,0,0,1-1.678,0L2.589,1.172A1.75,1.75,0,0,0,0,2.708V58.775a1.75,1.75,0,0,0,2.588,1.536L6.463,58.2a1.749,1.749,0,0,1,1.676,0l5.625,3.067a1.753,1.753,0,0,0,1.676,0l3.294-1.8a20.08,20.08,0,0,1,25-27.015V2.7a1.75,1.75,0,0,0-2.588-1.536m-29.78,42.49H8.748a2.187,2.187,0,0,1,0-4.374h2.624a2.187,2.187,0,0,1,0,4.374M16.5,34.909H8.748a2.187,2.187,0,0,1,0-4.374H16.5a2.187,2.187,0,1,1,0,4.374m18.068-8.748H8.748a2.187,2.187,0,0,1,0-4.374H34.565a2.187,2.187,0,0,1,0,4.374m0-8.748H8.748a2.187,2.187,0,0,1,0-4.374H34.565a2.187,2.187,0,0,1,0,4.374" transform="translate(0 0)" fill="#173042"/>
      </g>
    </g>
    <rect id="Rect치ngulo_344760" data-name="Rect치ngulo 344760" width="82" height="82" transform="translate(-496 -7188)" fill="none"/>
  </g>
</svg>
