<svg xmlns="http://www.w3.org/2000/svg" xmlns:xlink="http://www.w3.org/1999/xlink" width="123" height="123" viewBox="0 0 123 123">
  <defs>
    <clipPath id="clip-path">
      <rect id="Rectángulo_37106" data-name="Rectángulo 37106" width="59.892" height="65.486" fill="#12263f"/>
    </clipPath>
  </defs>
  <g id="Grupo_986018" data-name="Grupo 986018" transform="translate(-977.125 -8611)">
    <circle id="Elipse_4820" data-name="Elipse 4820" cx="61.5" cy="61.5" r="61.5" transform="translate(977.125 8611)" fill="#f4a338"/>
    <g id="Grupo_141657" data-name="Grupo 141657" transform="translate(1014.125 8639.757)">
      <g id="Grupo_141656" data-name="Grupo 141656" clip-path="url(#clip-path)">
        <path id="Trazado_183532" data-name="Trazado 183532" d="M8.617,10.34l32.743-.028V6.893A6.894,6.894,0,0,0,34.466,0H6.893A6.894,6.894,0,0,0,0,6.893v51.7a6.894,6.894,0,0,0,6.893,6.893H34.466a6.894,6.894,0,0,0,6.893-6.893V49.949H32.881c-.048,0-24.264.028-24.264.028a1.724,1.724,0,0,1-1.723-1.723V12.063A1.724,1.724,0,0,1,8.617,10.34M22.4,61.178H18.957a3.447,3.447,0,0,1,0-6.893H22.4a3.447,3.447,0,1,1,0,6.893" fill="#12263f"/>
        <path id="Trazado_183533" data-name="Trazado 183533" d="M18.956,21.423a2.585,2.585,0,1,0,2.585,2.585,2.585,2.585,0,0,0-2.585-2.585M31.019,17.1c-3.331,0-6.032,2.613-6.032,6.893,0,4.336,2.7,6.892,6.032,6.892s6.032-2.556,6.032-6.892c0-4.281-2.7-6.893-6.032-6.893m22.994-6.512a3.461,3.461,0,0,0-2.482-2.035,3.542,3.542,0,0,0-.694-.071H11.2a3.542,3.542,0,0,0-.694.071A3.443,3.443,0,0,0,7.754,11.93V36.056a3.443,3.443,0,0,0,2.752,3.378c.224.045,40.331.069,40.331.069a3.542,3.542,0,0,0,.694-.069,3.443,3.443,0,0,0,2.752-3.378V11.93a3.443,3.443,0,0,0-.271-1.341M49.975,29.975a5.351,5.351,0,0,0-5.223,5.22H17.286a5.351,5.351,0,0,0-5.223-5.22V18.016a5.355,5.355,0,0,0,5.223-5.225H44.752a5.355,5.355,0,0,0,5.223,5.225Zm-6.893-8.549a2.585,2.585,0,1,0,2.585,2.585,2.587,2.587,0,0,0-2.585-2.585" transform="translate(5.609 6.136)" fill="#12263f"/>
      </g>
    </g>
  </g>
</svg>
